<svg width="512" height="512" viewBox="0 0 512 512" fill="none" xmlns="http://www.w3.org/2000/svg">
<circle cx="256" cy="256" r="256" fill="#FF9300"/>
<path d="M213.896 61.9369L219.083 62.394L224.522 63.5898L228.236 65.0448L230.464 66.0165L234.428 67.9633L237.155 69.6721L244.104 74.807L246.341 77.013L248.328 78.727L251.309 81.4214L251.81 82.4053L252.304 82.4018L255.536 85.5882L257.776 88.2878L259.767 90.4955L262.258 93.687L264.748 96.6318L267.489 100.315L269.485 103.264L271.479 105.965L274.472 110.387L276.472 113.829L278.217 116.286L279.717 118.99L281.715 122.185L284.215 126.611L285.964 129.561L287.464 132.266L288.467 134.481L290.717 138.415L292.971 143.089L294.473 146.041L297.982 153.422L298.985 155.637L300.24 158.59L301.996 162.527L304 166.71L305.009 169.665L306.01 171.633L307.522 176.066L308.27 177.048L309.788 182.221L311.036 184.187L312.807 190.346L313.306 191.083L314.292 190.83L316.747 188.837L318.956 187.094L320.92 185.599L329.765 179.611L332.47 178.111L332.96 177.614L335.177 176.858L337.143 175.609L338.869 175.35L340.341 174.106L344.776 172.84L345.756 171.846L352.901 169.82L355.611 169.06L357.833 169.045L360.061 170.016L362.05 171.977L363.298 173.943L363.804 175.668L363.583 179.372L361.635 183.089L359.693 187.793L355.584 200.165L353.91 207.83L352.949 211.54L351.767 218.954L351.054 222.909L351.067 224.637L350.35 228.098L350.137 232.79L349.433 237.979L349.217 242.424L348.498 245.391L348.748 245.883L348.773 249.339L348.343 258.476L348.152 266.377L348.406 267.363L348.161 267.611L348.173 269.339L348.672 270.076L348.184 270.82L348.194 272.301L348.693 273.038L348.207 274.029L348.215 275.263L348.716 276.247L348.234 277.979L348.733 278.716L348.257 281.188L349.006 282.417L348.77 283.9L348.276 283.903L349.283 286.612L348.8 288.096L349.306 289.821L349.803 290.311L349.33 293.277L350.078 294.259L349.841 295.742L349.596 295.99L349.605 297.224L350.354 298.453L350.365 299.934L349.871 299.938L350.379 301.909L350.883 303.387L350.392 303.884L350.403 305.365L351.156 307.088L350.679 309.56L351.177 310.05L351.434 311.529L350.949 312.767L351.703 314.737L351.224 316.715L352.229 319.177L351.745 320.661L352.001 321.894L352.25 322.139L352.262 323.867L352.02 324.609L352.526 326.333L352.293 328.31L352.549 329.542L352.314 331.272L352.571 332.752L352.125 339.42L351.423 344.856L350.708 348.564L349.262 353.511L347.569 358.461L343.913 365.152L342.201 367.385L339.51 370.861L339.017 370.864L339.528 373.329L344.09 390.083L344.349 391.81L344.111 393.046L344.867 395.262L344.879 396.99L344.637 397.732L345.145 399.704L343.711 406.379L340.787 411.831L338.833 414.807L338.34 414.81L338.343 415.304L335.644 417.545L333.187 419.29L331.221 420.538L328.513 421.545L321.86 423.32L317.426 424.586L307.816 427.122L305.353 427.88L294.265 430.921L292.049 431.677L285.641 433.204L284.411 433.706L280.96 434.471L279.477 434.235L278.985 434.485L277.255 434.251L275.032 434.019L270.829 433.062L265.377 430.138L262.648 428.182L259.663 424.994L258.168 423.03L257.415 421.307L256.417 419.833L255.407 416.631L254.661 415.896L251.622 405.055L249.341 396.678L249.087 395.692L246.864 395.461L244.882 394.488L242.655 393.763L235.716 389.862L232.239 386.925L229.506 384.475L227.519 382.761L224.781 379.571L223.286 377.607L221.294 375.153L217.551 369.501L216.301 367.288L214.302 363.846L213.05 361.387L212.047 359.172L211.047 357.451L210.041 354.743L209.043 353.268L208.29 351.546L207.29 349.825L206.536 347.855L205.79 347.12L205.032 344.657L203.784 342.691L203.278 340.966L202.28 339.492L201.522 337.029L200.776 336.293L199.772 333.832L199.271 332.848L198.775 332.605L197.765 329.403L197.762 328.909L197.02 328.667L196.262 326.204L195.017 324.732L194.261 322.515L193.263 321.041L191.51 317.597L189.014 313.665L188.511 312.434L187.263 310.468L186.512 308.993L183.268 304.078L181.269 300.636L179.275 297.935L177.278 294.74L176.028 292.527L173.783 289.334L171.292 286.142L169.298 283.441L167.801 281.229L166.058 279.02L163.815 276.074L161.574 273.374L159.087 270.676L157.341 268.22L154.854 265.522L153.112 263.559L148.886 259.392L147.144 257.43L144.659 255.226L143.915 254.737L143.912 254.244L143.17 254.002L141.925 252.53L138.698 250.084L136.216 248.126L133.735 246.416L132.494 245.437L130.015 243.974L128.522 242.256L127.27 239.796L127.007 237.576L127.725 234.362L128.946 232.379L131.157 230.882L137.563 229.109L139.781 228.599L140.273 228.349L141.754 228.338L142.99 228.576L143.974 228.076L145.945 227.568L147.178 227.313L148.909 227.794L151.124 226.791L152.113 227.031L153.841 227.019L155.072 226.516L156.803 226.998L157.542 226.745L160.751 226.723L168.16 227.164L172.113 227.63L178.785 228.57L178.773 226.842L177.251 221.175L176.998 220.19L177.482 218.952L175.965 213.778L175.956 212.544L176.194 211.308L174.934 207.614L175.161 204.897L173.901 201.203L174.129 198.486L173.372 196.27L173.602 193.799L172.847 191.83L173.073 188.866L172.319 186.896L172.798 184.918L171.795 182.703L172.279 181.219L172.021 179.739L171.522 179.002L171.762 178.013L171.999 176.53L171.247 175.054L171.732 173.817L171.724 172.582L171.227 172.092L171.214 170.364L171.452 169.128L170.954 168.391L171.192 167.155L171.432 166.166L170.682 164.937L171.159 162.465L170.66 161.728L170.889 159.258L170.632 157.778L170.868 156.296L170.366 155.065L170.852 154.074L170.597 152.841L170.345 152.103L170.578 150.126L170.807 147.656L170.551 146.423L170.763 141.485L171 140.002L170.742 138.522L170.96 134.324L171.439 132.346L171.422 129.877L171.877 124.443L172.581 119.254L173.292 115.053L173.523 112.829L175.197 105.165L176.396 100.219L179.054 92.0536L180.754 88.0918L182.697 83.6345L185.136 79.4206L187.339 76.6896L188.804 74.4575L191.744 71.2275L194.443 68.9866L195.671 67.9905L197.882 66.4937L199.358 65.7427L202.311 64.4875L205.268 63.726L206.252 63.2253L208.719 62.961L209.948 62.2117L212.416 62.1943L213.405 62.4341L213.896 61.9369ZM224.396 80.6242L224.898 81.855L227.141 84.8014L229.637 88.7336L231.136 91.1916L232.886 94.3885L233.634 95.3706L234.635 97.3384L235.635 99.0594L236.867 98.8038L243.52 97.0287L244.256 96.283L241.771 94.0788L240.029 92.1162L238.289 90.4005L236.302 88.6865L233.074 85.9938L230.098 84.04L228.608 82.8162L225.385 80.8641L224.396 80.6242ZM198.526 87.7193L196.817 90.4468L195.6 92.924L194.63 95.3995L193.417 98.3705L191.242 105.051L190.284 109.255L189.799 110.492L189.806 111.48L192.026 111.217L197.693 109.696L198.429 108.95L198.404 105.494L198.15 104.509L198.394 104.013L198.383 102.532L198.128 101.299L198.364 99.8166L198.107 98.3373L198.343 96.8544L198.772 87.7175L198.526 87.7193ZM213.87 93.2886L213.625 93.5372L213.406 97.4885L213.434 101.438L213.214 105.143L215.925 104.63L220.607 103.362L220.353 102.377L218.357 99.4284L217.356 97.4606L215.859 95.2494L214.611 93.2834L213.87 93.2886ZM254.225 109.79L243.385 112.829L243.143 113.571L244.154 116.773L245.15 118.001L246.158 120.956L247.156 122.43L248.166 125.632L249.162 126.859L249.922 129.569L250.918 130.797L251.672 132.766L253.399 132.507L267.196 128.707L267.439 128.211L266.193 126.492L264.941 124.032L263.196 121.576L261.948 119.61L261.197 118.134L259.703 116.416L256.209 111.01L255.213 109.783L254.225 109.79ZM227.616 117.137L217.515 119.924L214.066 120.936L213.822 121.431L214.829 124.14L214.6 126.61L215.356 128.826L215.118 130.062L214.876 130.805L215.883 133.513L215.893 134.994L215.655 136.23L216.408 137.953L216.18 140.67L216.686 142.394L218.412 142.135L233.195 138.081L236.397 137.071L236.636 135.835L235.885 134.359L235.137 133.377L234.377 130.667L233.381 129.439L232.121 125.745L231.375 125.01L230.114 121.316L229.369 120.581L228.357 117.132L227.616 117.137ZM198.297 125.244L187.21 128.285L186.753 133.472L186.534 137.423L186.054 139.402L186.558 140.879L186.318 141.868L186.103 146.313L186.136 151.004L189.093 150.242L197.223 147.963L201.658 146.697L201.901 146.202L201.392 143.984L201.635 143.488L201.373 141.268L201.122 140.776L201.112 139.295L201.348 137.812L200.342 135.104L200.569 132.387L200.069 131.403L200.055 129.428L200.295 128.439L199.794 127.455L199.533 125.482L198.297 125.244ZM274.452 142.48L262.626 145.772L257.945 147.04L258.204 148.766L259.72 153.692L260.716 154.92L262.489 161.326L263.484 162.306L265.001 167.479L268.944 166.464L282.741 162.664L284.958 161.907L284.455 160.677L283.71 159.941L282.952 157.478L282.206 156.743L281.446 154.033L280.45 152.805L279.195 149.852L278.447 148.87L277.691 146.653L276.949 146.412L275.933 142.469L274.452 142.48ZM242.423 151.346L222.959 156.668L218.771 157.932L219.28 160.15L220.544 164.338L220.064 166.316L220.819 168.286L221.58 171.242L221.839 172.969L221.603 174.452L222.613 177.654L222.869 178.886L224.842 178.625L245.045 173.051L249.48 171.786L250.215 171.04L249.207 168.085L248.701 166.36L247.955 165.625L246.187 159.96L245.931 158.727L245.185 157.992L244.175 154.79L243.164 151.341L242.423 151.346ZM203.494 161.99L196.349 164.015L186.248 166.802L186.004 167.297L187.014 170.499L186.535 172.478L187.286 173.954L187.058 176.671L187.559 177.655L187.331 180.372L188.087 182.588L187.602 183.826L187.856 184.811L188.107 185.303L188.119 187.031L187.882 188.514L189.855 188.253L206.363 183.693L208.087 183.187L207.827 181.214L206.818 178.259L207.3 176.528L205.53 170.615L205.759 168.145L204.238 162.478L203.988 161.986L203.494 161.99ZM290.245 176.435L272.505 181.251L270.535 182.005L271.045 184.223L273.324 192.354L274.57 194.073L276.851 202.45L277.102 202.942L279.075 202.681L297.307 197.615L299.031 197.109L299.274 196.614L298.523 195.138L297.778 194.402L296.256 188.735L295.26 187.508L293.489 181.349L292.242 179.63L291.479 176.426L290.245 176.435ZM255.258 186.063L237.765 190.877L227.417 193.666L225.694 194.418L227.721 201.81L228.231 204.028L227.985 204.277L228.248 206.497L230.781 215.613L231.523 215.854L240.392 213.323L258.871 208.255L262.073 207.245L261.813 205.272L259.279 196.156L258.285 195.175L256.258 187.784L255.752 186.059L255.258 186.063ZM341.939 190.634L338.25 192.635L334.563 194.883L329.896 198.125L327.932 199.62L325.232 201.861L322.044 204.846L320.817 205.842L319.103 207.829L315.673 211.556L313.959 213.543L312.982 215.031L311.758 216.521L310.046 218.755L308.581 220.987L306.14 224.954L305.16 225.949L303.46 229.91L300.047 236.106L297.379 242.79L295.194 247.99L292.057 258.133L290.854 262.585L289.175 269.509L287.03 280.386L286.326 285.576L286.34 287.55L285.622 290.765L285.406 295.21L284.942 299.41L284.489 305.091L284.746 306.57L284.315 315.46L284.574 317.186L284.336 318.422L284.595 320.148L284.355 321.138L284.368 322.866L283.643 325.092L281.931 327.326L280.456 328.324L277.499 329.086L275.772 329.098L273.049 328.13L271.062 326.416L269.315 323.713L268.314 321.745L266.316 318.55L263.82 314.618L262.073 311.914L260.823 309.701L258.827 306.753L257.082 304.297L255.338 302.088L250.105 295.212L247.864 292.513L246.369 290.548L244.13 288.096L241.889 285.396L237.91 281.227L236.669 280.249L234.927 278.286L232.688 275.833L229.955 273.384L227.968 271.67L226.725 270.445L223.992 267.995L220.766 265.55L218.283 263.592L215.803 261.882L213.569 260.169L207.371 256.51L205.139 255.045L203.401 253.576L201.176 253.098L198.697 251.634L195.229 249.931L192.753 248.961L189.782 247.748L183.348 245.571L180.628 244.85L175.188 243.654L171.974 242.936L169.999 242.95L167.281 242.476L159.38 242.285L153.949 242.323L154.203 243.309L156.685 245.266L161.409 249.923L163.147 251.392L165.388 254.092L167.131 256.301L170.118 259.736L172.854 262.679L174.596 264.642L177.586 268.57L179.08 270.288L181.074 272.989L182.819 275.445L186.06 279.866L191.798 288.466L194.543 292.643L196.292 295.593L198.538 299.033L200.287 301.983L202.785 306.162L204.284 308.62L205.786 311.572L206.789 313.786L208.037 315.753L209.539 318.704L211.293 322.395L212.046 324.117L214.049 328.053L215.304 331.007L216.554 333.219L217.307 334.942L220.06 340.354L220.815 342.323L223.316 346.996L224.321 349.457L226.324 353.393L229.573 359.048L231.074 361.753L234.067 366.175L236.56 369.614L239.545 372.802L242.029 375.006L244.758 376.962L249.963 379.887L256.891 382.06L260.844 382.526L265.536 382.739L266.278 382.981L267.262 382.48L269.979 382.708L270.963 382.207L273.68 382.435L275.896 381.679L277.377 381.668L278.613 381.906L279.597 381.406L282.554 380.644L286.003 379.632L287.484 379.622L288.72 379.86L290.937 379.104L297.343 377.33L297.583 376.341L300.048 375.83L305.961 374.307L307.434 373.062L310.144 372.303L311.616 371.058L313.834 370.548L315.554 369.302L317.521 368.301L323.418 364.309L325.874 362.564L328.324 359.831L330.281 357.348L333.206 352.144L334.661 348.43L335.864 343.978L336.339 341.26L336.773 332.863L337.006 330.887L336.747 329.16L336.985 327.924L336.484 326.941L336.964 324.962L336.463 323.978L336.702 322.742L336.943 322L336.19 320.277L336.42 317.807L335.662 315.344L336.147 314.106L335.891 312.874L335.392 312.137L335.868 309.665L335.116 307.942L335.342 304.978L334.843 304.241L335.069 301.277L334.57 300.54L334.794 297.329L334.043 295.853L334.034 294.619L334.279 294.37L334.269 292.889L333.77 292.152L333.996 289.188L333.243 287.466L333.719 284.994L333.222 284.503L332.963 282.777L333.208 282.529L333.198 281.047L332.693 279.57L333.187 279.566L333.177 278.085L332.674 276.855L332.905 274.631L332.403 273.4L332.89 272.409L332.632 270.93L332.38 270.191L332.869 269.447L332.611 267.968L332.359 267.229L332.594 265.499L332.822 262.782L332.568 261.797L332.78 256.858L333.014 255.128L332.759 253.896L333.202 246.734L333.633 237.844L334.107 235.125L334.095 233.397L334.335 232.408L334.081 231.422L334.563 229.691L334.547 227.469L335.265 224.255L335.731 220.301L338.114 208.188L338.101 206.46L339.299 201.268L341.706 192.611L342.193 191.62L341.939 190.634ZM209.924 198.48L197.112 202.026L190.953 203.798L190.214 204.05L190.471 205.529L190.974 206.76L190.988 208.735L190.746 209.477L191.502 211.694L192.516 215.389L192.286 217.86L193.044 220.323L193.801 222.539L193.577 225.75L195.551 225.736L206.392 222.697L215.508 220.164L216 219.914L215.489 217.449L213.717 211.29L213.946 208.819L211.921 201.675L211.158 198.471L209.924 198.48ZM293.717 213.686L283.369 216.475L281.891 216.979L282.15 218.705L284.941 229.301L285.443 230.532L286.182 230.279L287.393 227.062L291.051 220.617L294.465 214.669L294.705 213.679L293.717 213.686ZM266.122 221.287L242.962 227.623L234.832 229.902L234.097 230.648L236.122 237.792L238.149 245.184L238.652 246.415L238.412 247.404L238.17 248.146L240.195 255.291L241.922 255.032L249.066 253.006L273.951 246.165L274.439 245.421L272.666 239.015L271.42 237.296L269.139 228.919L267.11 221.28L266.122 221.287ZM218.324 234.462L210.194 236.741L206.251 237.757L207.494 238.982L210.22 240.444L214.681 242.881L220.383 246.297L222.37 248.011L223.109 247.759L220.576 238.643L219.56 234.7L218.324 234.462ZM274.555 261.713L267.41 263.739L249.917 268.553L247.945 269.06L248.446 270.044L250.435 272.005L252.177 273.968L254.416 276.42L256.158 278.383L258.397 280.836L261.138 284.519L262.135 285.747L263.63 287.711L267.618 293.114L269.111 294.831L269.851 294.826L270.331 292.848L270.79 287.907L271.722 280.001L271.953 277.778L274.576 264.675L275.048 261.71L274.555 261.713ZM325.021 381.578L321.579 383.577L319.366 384.827L317.15 385.584L315.923 386.58L311.98 387.595L311 388.589L300.159 391.628L298.435 392.134L297.209 393.377L295.73 393.635L295.233 393.144L293.753 393.402L282.666 396.442L281.679 396.449L280.443 396.211L276.502 397.473L274.77 396.992L272.309 397.997L270.084 397.519L268.853 398.021L268.111 397.78L266.383 397.792L266.138 398.04L266.4 400.26L269.443 411.595L271.191 414.545L272.434 415.77L274.42 417.237L277.392 418.697L279.863 418.927L281.342 418.669L281.591 418.914L283.564 418.654L301.796 413.588L321.999 408.014L323.718 406.767L325.441 406.014L327.155 404.027L329.105 400.558L329.333 397.841L329.562 395.37L328.044 390.197L326.014 382.312L325.515 381.575L325.021 381.578Z" fill="#FEC526"/>
<path d="M274.555 261.713L267.41 263.739L249.917 268.553L247.945 269.06L248.446 270.044L250.435 272.005L252.177 273.968L254.416 276.42L256.158 278.383L258.397 280.836L261.138 284.519L262.135 285.747L263.63 287.711L267.618 293.114L269.111 294.831L269.851 294.826L270.331 292.848L270.79 287.907L271.722 280.001L271.953 277.778L274.576 264.675L275.048 261.71L274.555 261.713Z" fill="#FEC526"/>
<path d="M293.717 213.686L283.369 216.475L281.891 216.979L282.15 218.705L284.941 229.301L285.443 230.532L286.182 230.279L287.393 227.062L291.051 220.617L294.465 214.669L294.705 213.679L293.717 213.686Z" fill="#FEC526"/>
<path d="M218.324 234.462L210.194 236.741L206.251 237.757L207.494 238.982L210.22 240.444L214.681 242.881L220.383 246.297L222.37 248.011L223.109 247.759L220.576 238.643L219.56 234.7L218.324 234.462Z" fill="#FEC526"/>
<path d="M255.258 186.063L237.765 190.877L227.417 193.666L225.694 194.418L227.721 201.81L228.231 204.028L227.985 204.277L228.248 206.497L230.781 215.613L231.523 215.854L240.392 213.323L258.871 208.255L262.073 207.245L261.813 205.272L259.279 196.156L258.285 195.175L256.258 187.784L255.752 186.059L255.258 186.063Z" fill="#FEC526"/>
<path d="M290.245 176.435L272.505 181.251L270.535 182.005L271.045 184.223L273.324 192.354L274.57 194.073L276.851 202.45L277.102 202.942L279.075 202.681L297.307 197.615L299.031 197.109L299.274 196.614L298.523 195.138L297.778 194.402L296.256 188.735L295.26 187.508L293.489 181.349L292.242 179.63L291.479 176.426L290.245 176.435Z" fill="#FEC526"/>
<path d="M274.452 142.48L262.626 145.772L257.945 147.04L258.204 148.766L259.72 153.692L260.716 154.92L262.489 161.326L263.484 162.306L265.001 167.479L268.944 166.464L282.741 162.664L284.958 161.907L284.455 160.677L283.71 159.941L282.952 157.478L282.206 156.743L281.446 154.033L280.45 152.805L279.195 149.852L278.447 148.87L277.691 146.653L276.949 146.412L275.933 142.469L274.452 142.48Z" fill="#FEC526"/>
<path d="M242.423 151.346L222.959 156.668L218.771 157.932L219.28 160.15L220.544 164.338L220.064 166.316L220.819 168.286L221.58 171.242L221.839 172.969L221.603 174.452L222.613 177.654L222.869 178.886L224.842 178.625L245.045 173.051L249.48 171.786L250.215 171.04L249.207 168.085L248.701 166.36L247.955 165.625L246.187 159.96L245.931 158.727L245.185 157.992L244.175 154.79L243.164 151.341L242.423 151.346Z" fill="#FEC526"/>
<path d="M203.494 161.99L196.349 164.015L186.248 166.802L186.004 167.297L187.014 170.499L186.535 172.478L187.286 173.954L187.058 176.671L187.559 177.655L187.331 180.372L188.087 182.588L187.602 183.826L187.856 184.811L188.107 185.303L188.119 187.031L187.882 188.514L189.855 188.253L206.363 183.693L208.087 183.187L207.827 181.214L206.818 178.259L207.3 176.528L205.53 170.615L205.759 168.145L204.238 162.478L203.988 161.986L203.494 161.99Z" fill="#FEC526"/>
<path d="M209.924 198.48L197.112 202.026L190.953 203.798L190.214 204.05L190.471 205.529L190.974 206.76L190.988 208.735L190.746 209.477L191.502 211.694L192.516 215.389L192.286 217.86L193.044 220.323L193.801 222.539L193.577 225.75L195.551 225.736L206.392 222.697L215.508 220.164L216 219.914L215.489 217.449L213.717 211.29L213.946 208.819L211.921 201.675L211.158 198.471L209.924 198.48Z" fill="#FEC526"/>
<path d="M198.297 125.244L187.21 128.285L186.753 133.472L186.534 137.423L186.054 139.402L186.558 140.879L186.318 141.868L186.103 146.313L186.136 151.004L189.093 150.242L197.223 147.963L201.658 146.697L201.901 146.202L201.392 143.984L201.635 143.488L201.373 141.268L201.122 140.776L201.112 139.295L201.348 137.812L200.342 135.104L200.569 132.387L200.069 131.403L200.055 129.428L200.295 128.439L199.794 127.455L199.533 125.482L198.297 125.244Z" fill="#FEC526"/>
<path d="M227.616 117.137L217.515 119.924L214.066 120.936L213.822 121.431L214.829 124.14L214.6 126.61L215.356 128.826L215.118 130.062L214.876 130.805L215.883 133.513L215.893 134.994L215.655 136.23L216.408 137.953L216.18 140.67L216.686 142.394L218.412 142.135L233.195 138.081L236.397 137.071L236.636 135.835L235.885 134.359L235.137 133.377L234.377 130.667L233.381 129.439L232.121 125.745L231.375 125.01L230.114 121.316L229.369 120.581L228.357 117.132L227.616 117.137Z" fill="#FEC526"/>
<path d="M254.225 109.79L243.385 112.829L243.143 113.571L244.154 116.773L245.15 118.001L246.158 120.956L247.156 122.43L248.166 125.632L249.162 126.859L249.922 129.569L250.918 130.797L251.672 132.766L253.399 132.507L267.196 128.707L267.439 128.211L266.193 126.492L264.941 124.032L263.196 121.576L261.948 119.61L261.197 118.134L259.703 116.416L256.209 111.01L255.213 109.783L254.225 109.79Z" fill="#FEC526"/>
<path d="M224.396 80.6242L224.898 81.855L227.141 84.8014L229.637 88.7336L231.136 91.1916L232.886 94.3885L233.634 95.3706L234.635 97.3384L235.635 99.0594L236.867 98.8038L243.52 97.0287L244.256 96.283L241.771 94.0788L240.029 92.1162L238.289 90.4005L236.302 88.6865L233.074 85.9938L230.098 84.04L228.608 82.8162L225.385 80.8641L224.396 80.6242Z" fill="#FEC526"/>
<path d="M213.87 93.2886L213.625 93.5372L213.406 97.4885L213.434 101.438L213.214 105.143L215.925 104.63L220.607 103.362L220.353 102.377L218.357 99.4284L217.356 97.4606L215.859 95.2494L214.611 93.2834L213.87 93.2886Z" fill="#FEC526"/>
<path d="M198.526 87.7193L196.817 90.4468L195.6 92.924L194.63 95.3995L193.417 98.3705L191.242 105.051L190.284 109.255L189.799 110.492L189.806 111.48L192.026 111.217L197.693 109.696L198.429 108.95L198.404 105.494L198.15 104.509L198.394 104.013L198.383 102.532L198.128 101.299L198.364 99.8166L198.107 98.3373L198.343 96.8544L198.772 87.7175L198.526 87.7193Z" fill="#FEC526"/>
<path d="M266.122 221.287L242.962 227.623L234.832 229.902L234.097 230.648L236.122 237.792L238.149 245.184L238.652 246.415L238.412 247.404L238.17 248.146L240.195 255.291L241.922 255.032L249.066 253.006L273.951 246.165L274.439 245.421L272.666 239.015L271.42 237.296L269.139 228.919L267.11 221.28L266.122 221.287Z" fill="#FEC526"/>
<path d="M341.939 190.634L338.25 192.635L334.563 194.883L329.896 198.125L327.932 199.62L325.232 201.861L322.044 204.846L320.817 205.842L319.103 207.829L315.673 211.556L313.959 213.543L312.982 215.031L311.758 216.521L310.046 218.755L308.581 220.987L306.14 224.954L305.16 225.949L303.46 229.91L300.047 236.106L297.379 242.79L295.194 247.99L292.057 258.133L290.854 262.585L289.175 269.509L287.03 280.386L286.326 285.576L286.34 287.55L285.622 290.765L285.406 295.21L284.942 299.41L284.489 305.091L284.746 306.57L284.315 315.46L284.574 317.186L284.336 318.422L284.595 320.148L284.355 321.138L284.368 322.866L283.643 325.092L281.931 327.326L280.456 328.324L277.499 329.086L275.772 329.098L273.049 328.13L271.062 326.416L269.315 323.713L268.314 321.745L266.316 318.55L263.82 314.618L262.073 311.914L260.823 309.701L258.827 306.753L257.082 304.297L255.338 302.088L250.105 295.212L247.864 292.513L246.369 290.548L244.13 288.096L241.889 285.396L237.91 281.227L236.669 280.249L234.927 278.286L232.688 275.833L229.955 273.384L227.968 271.67L226.725 270.445L223.992 267.995L220.766 265.55L218.283 263.592L215.803 261.882L213.569 260.169L207.371 256.51L205.139 255.045L203.401 253.576L201.176 253.098L198.697 251.634L195.229 249.931L192.753 248.961L189.782 247.748L183.348 245.571L180.628 244.85L175.188 243.654L171.974 242.936L169.999 242.95L167.281 242.476L159.38 242.285L153.949 242.323L154.203 243.309L156.685 245.266L161.409 249.923L163.147 251.392L165.388 254.092L167.131 256.301L170.118 259.736L172.854 262.679L174.596 264.642L177.586 268.57L179.08 270.288L181.074 272.989L182.819 275.445L186.06 279.866L191.798 288.466L194.543 292.643L196.292 295.593L198.538 299.033L200.287 301.983L202.785 306.162L204.284 308.62L205.786 311.572L206.789 313.786L208.037 315.753L209.539 318.704L211.293 322.395L212.046 324.117L214.049 328.053L215.304 331.007L216.554 333.219L217.307 334.942L220.06 340.354L220.815 342.323L223.316 346.996L224.321 349.457L226.324 353.393L229.573 359.048L231.074 361.753L234.067 366.175L236.56 369.614L239.545 372.802L242.029 375.006L244.758 376.962L249.963 379.887L256.891 382.06L260.844 382.526L265.536 382.739L266.278 382.981L267.262 382.48L269.979 382.708L270.963 382.207L273.68 382.435L275.896 381.679L277.377 381.668L278.613 381.906L279.597 381.406L282.554 380.644L286.003 379.632L287.484 379.622L288.72 379.86L290.937 379.104L297.343 377.33L297.583 376.341L300.048 375.83L305.961 374.307L307.434 373.062L310.144 372.303L311.616 371.058L313.834 370.548L315.554 369.302L317.521 368.301L323.418 364.309L325.874 362.564L328.324 359.831L330.281 357.348L333.206 352.144L334.661 348.43L335.864 343.978L336.339 341.26L336.773 332.863L337.006 330.887L336.747 329.16L336.985 327.924L336.484 326.941L336.964 324.962L336.463 323.978L336.702 322.742L336.943 322L336.19 320.277L336.42 317.807L335.662 315.344L336.147 314.106L335.891 312.874L335.392 312.137L335.868 309.665L335.116 307.942L335.342 304.978L334.843 304.241L335.069 301.277L334.57 300.54L334.794 297.329L334.043 295.853L334.034 294.619L334.279 294.37L334.269 292.889L333.77 292.152L333.996 289.188L333.243 287.466L333.719 284.994L333.222 284.503L332.963 282.777L333.208 282.529L333.198 281.047L332.693 279.57L333.187 279.566L333.177 278.085L332.674 276.855L332.905 274.631L332.403 273.4L332.89 272.409L332.632 270.93L332.38 270.191L332.869 269.447L332.611 267.968L332.359 267.229L332.594 265.499L332.822 262.782L332.568 261.797L332.78 256.858L333.014 255.128L332.759 253.896L333.202 246.734L333.633 237.844L334.107 235.125L334.095 233.397L334.335 232.408L334.081 231.422L334.563 229.691L334.547 227.469L335.265 224.255L335.731 220.301L338.114 208.188L338.101 206.46L339.299 201.268L341.706 192.611L342.193 191.62L341.939 190.634Z" fill="white"/>
<path d="M325.021 381.578L321.579 383.577L319.366 384.827L317.15 385.584L315.923 386.58L311.98 387.595L311 388.589L300.159 391.628L298.435 392.134L297.209 393.377L295.73 393.635L295.233 393.144L293.753 393.402L282.666 396.442L281.679 396.449L280.443 396.211L276.502 397.473L274.77 396.992L272.309 397.997L270.084 397.519L268.853 398.021L268.111 397.78L266.383 397.792L266.138 398.04L266.4 400.26L269.443 411.595L271.191 414.545L272.434 415.77L274.42 417.237L277.392 418.697L279.863 418.927L281.342 418.669L281.591 418.914L283.564 418.654L301.796 413.588L321.999 408.014L323.718 406.767L325.441 406.014L327.155 404.027L329.105 400.558L329.333 397.841L329.562 395.37L328.044 390.197L326.014 382.312L325.515 381.575L325.021 381.578Z" fill="white"/>
</svg>
