<svg width="404" height="512" viewBox="0 0 404 512" fill="none" xmlns="http://www.w3.org/2000/svg">
<path d="M389.799 17.7011L394.332 24.3396L398.229 32.0018L400.126 37.857L401.148 41.4675L402.702 48.1028L403.331 53.0298L404 66.3463L403.555 71.1746L403.453 75.2229L403.153 81.4171L402.468 82.9771L402.955 83.563L402.313 90.5372L401.282 95.8526L400.593 100.388L399.22 106.483L398.139 112.335L396.423 119.211L394.854 124.477L393.58 129.499L391.227 137.398L389.073 143.151L387.847 147.637L386.085 152.074L384.224 157.583L381.384 164.897L379.572 169.87L377.809 174.306L376.146 177.67L373.649 184.203L370.272 191.467L368.216 196.147L362.834 207.555L361.17 210.918L358.87 215.305L355.886 221.253L352.852 227.737L350.309 231.831L348.938 234.951L345.123 241.092L344.682 242.945L339.988 249.818L338.861 253.231L333.238 261.37L332.846 262.686L334.114 263.614L338.897 264.595L343.143 265.527L346.852 266.409L362.665 271.109L367.105 272.87L368.179 272.969L371.252 274.874L374.669 276L376.668 277.807L379.597 278.347L385.45 282.402L387.598 282.599L397.013 289.146L400.574 291.637L402.768 294.274L403.789 297.884L403.394 302.176L402.267 305.589L400.702 307.88L396.061 311.24L389.713 312.55L382.192 314.834L363.388 322.032L352.593 327.531L347.22 330.013L337.206 335.855L331.784 338.873L329.731 340.578L324.895 343.108L319.081 347.443L312.193 351.679L306.672 355.77L302.422 357.814L302.08 358.594L297.975 362.003L286.639 370.429L277.014 377.929L276.085 379.197L275.548 379.147L273.495 380.852L273.103 382.169L271.736 382.313L269.977 383.775L269.585 385.091L267.925 385.479L266.459 386.697L265.774 388.257L263.234 389.376L262.842 390.693L259.422 392.542L258.688 394.639L256.685 395.807L256.197 395.221L253.947 399.072L251.701 399.948L250.136 402.238L250.037 403.311L246.031 405.648L245.59 407.501L243.587 408.669L243.05 408.62L241.584 409.838L240.849 411.934L239.09 413.396L238.603 412.81L236.745 415.344L235.473 417.391L234.399 417.292L232.64 418.754L231.319 421.337L227.9 423.187L227.801 424.26L226.286 426.014L224.332 426.646L222.718 429.473L219.885 430.836L217.928 434.443L215.681 435.318L214.459 436.829L214.41 437.366L212.357 439.07L211.234 439.508L209.669 441.799L207.08 443.454L205.858 444.965L203.562 446.377L202.046 448.131L193.643 454.121L186.461 458.6L181.332 461.375L174.006 464.488L166.436 467.309L154.863 469.491L150.518 469.632L143.732 469.82L143.245 469.234L140.8 472.255L125.251 494.089L123.443 496.087L121.733 497.012L119.826 500.083L117.773 501.788L116.65 502.225L114.792 504.76L105.413 509.578L96.038 511.421L90.5696 512L90.0821 511.414L89.4957 511.901L84.1756 510.871L79.6856 509.647L76.2696 508.521L72.4154 506.273L63.7814 500.069L57.9276 496.014L45.4889 487.025L42.1716 484.826L27.6839 474.567L24.6104 472.662L16.5134 466.507L14.7081 465.529L10.4158 462.159L9.24644 460.158L8.46571 459.816L7.05254 457.522L5.15182 454.642L2.18054 448.688L0.335931 439.321L0 434.15L0.886241 427.469L1.76914 423.763L3.09016 421.179L3.87422 418.546L6.71059 414.208L6.85886 412.599L16.8339 398.368L24.6084 387.451L25.5374 386.183L23.6367 383.304L22.8593 379.986L21.545 376.619L19.4105 364.52L19.516 357.497L19.7665 351.839L19.8686 347.791L20.9986 341.402L21.8815 337.696L22.8633 332.917L25.9501 322.922L27.37 319.265L29.5245 313.512L31.2375 309.612L32.9011 306.248L33.9784 303.372L36.2284 299.521L37.0124 296.888L38.3334 294.304L39.4107 291.428L41.0249 288.601L41.1732 286.991L43.3737 283.677L44.5004 280.264L46.0652 277.973L46.8493 275.34L49.0498 272.026L49.1981 270.417L51.1549 266.809L51.8401 265.249L51.6458 264.42L54.4822 260.082L55.0685 259.595L54.6304 258.473L56.831 255.158L57.3713 252.232L59.2787 249.162L60.0627 246.529L62.461 241.068L64.7143 234.242L65.6927 232.439L66.8194 229.026L67.8472 226.686L70.542 218.007L72.6965 212.253L73.9715 207.231L75.8328 201.721L77.2526 198.065L78.8702 192.262L80.2439 186.167L81.5189 181.144L82.6949 177.195L83.6273 172.952L84.9516 167.394L85.9828 162.078L86.7702 156.47L87.9957 151.984L88.7831 146.376L89.4222 142.377L90.2624 133.257L90.9015 129.258L91.1026 124.136L90.9576 122.771L91.544 122.283L91.1059 121.161L91.6462 118.235L91.4091 111.992L91.3169 107.114L90.9316 102.48L90.8855 100.041L90.207 95.6504L90.7967 92.188L92.5097 88.2879L94.9047 85.803L99.4474 83.5156L103.012 83.0318L106.965 84.2069L115.355 90.1182L118.135 92.2674L118.916 92.6097L120.379 94.3673L121.304 96.0755L122.866 96.7601L125.402 98.6164L126.914 99.8375L128.034 102.375L131.401 104.037L132.083 105.452L133.789 107.503L135.594 108.48L136.714 111.018L137.739 111.653L140.908 115.461L147.634 124.736L150.948 129.91L156.357 138.793L158.41 137.089L163.69 129.729L164.619 128.462L166.573 127.83L171.267 120.958L172.733 119.74L174.443 118.816L177.622 113.698L181.09 111.312L184.269 106.194L187.738 103.808L189.646 100.737L192.821 98.5943L194.436 95.7672L198.198 93.1375L199.812 90.3103L202.645 88.9478L204.308 85.5841L206.555 84.7087L208.07 82.9544L208.462 81.6379L209.879 80.9567L211.882 79.7883L212.91 77.4482L214.863 76.8163L216.329 75.5986L216.428 74.5256L218.48 72.8208L220.19 71.8959L220.582 70.5794L222.292 69.6546L223.708 68.9733L224.443 66.8768L227.862 65.0272L228.254 63.7107L231.43 61.5681L232.945 59.8139L234.948 58.6455L235.927 56.8419L237.587 56.4535L238.809 54.9429L239.445 53.9193L242.034 52.2638L245.21 50.1212L246.432 48.6106L252.539 44.0325L254.542 42.8641L256.058 41.1099L261.286 37.2625L264.119 35.8999L267.051 33.4644L273.988 28.6922L280.876 24.4564L286.592 21.1949L289.474 19.2958L300.27 13.7963L307.352 10.3899L319.709 5.57496L326.106 3.72865L333.334 1.68817L340.756 0.477092L346.175 0.434387L350.276 0L357.012 0.348976L362.333 1.37923L364.724 1.86966L368.677 3.04471L371.019 4.07162L375.41 6.36899L379.215 9.15347L380.777 9.83808L383.508 12.5238L385.606 13.2578L388.044 16.1871L388.726 17.6023L389.799 17.7011ZM377.755 48.5138L376.777 50.3174L375.453 55.8764L373.199 62.7024L371.73 66.8955L369.625 72.1121L369.183 73.9651L367.813 77.0852L366.736 79.9618L368.248 81.1829L376.882 87.387L378.493 87.5352L378.694 82.4139L379.333 78.4151L379.679 74.6597L379.781 70.6115L379.837 64.1244L379.257 58.6608L379.261 55.6855L378.437 49.9291L377.755 48.5138ZM343.951 24.5759L339.019 25.2044L334.868 26.1753L330.962 27.4391L326.224 28.897L316.114 32.8365L310.155 35.8052L308.202 36.4371L307.029 37.4113L309.516 39.8041L316.882 45.0801L318.493 45.2282L322.597 41.8185L323.526 40.5514L324.356 40.3572L326.116 38.8959L327.338 37.3852L329.341 36.2169L330.856 34.4627L332.859 33.2943L344.194 24.8688L343.951 24.5759ZM352.321 48.339L351.784 48.2896L346.849 51.8935L342.158 55.7903L337.517 59.1506L340.784 61.8857L346.882 66.2336L347.811 64.9664L349.379 59.7004L350.749 56.5803L351.925 52.6308L353.052 49.2178L352.321 48.339ZM372.118 112.648L357.874 102.681L356.751 103.119L353.914 107.457L353.423 109.846L350.88 113.941L350.096 116.574L347.26 120.912L346.769 123.301L344.275 126.859L343.784 129.248L342.17 132.075L344.17 133.882L362.218 146.633L363.049 146.439L363.882 143.269L365.595 139.369L366.821 134.883L367.947 131.47L368.975 129.13L369.565 125.668L372.602 116.209L373.093 113.819L372.118 112.648ZM337.289 88.0743L324.069 78.7434L319.484 75.6166L318.654 75.8107L316.404 79.6615L313.228 81.8041L311.321 84.8748L309.611 85.7996L308.488 86.2374L306.238 90.0881L304.478 91.5494L302.769 92.4742L301.448 95.0579L297.979 97.444L296.414 99.7347L298.414 101.542L317.731 115.22L322.072 118.054L323.782 117.129L324.81 114.789L325.251 112.936L327.745 109.379L328.236 106.989L331.415 101.871L331.563 100.262L334.742 95.1439L334.891 93.5345L338.02 88.9531L337.289 88.0743ZM298.899 61.0096L284.411 50.7505L277.766 55.2792L272.832 58.883L269.998 60.2456L268.727 62.2927L267.31 62.974L261.789 67.065L256.219 71.6924L260.023 74.4769L270.706 81.9516L276.56 86.0065L277.39 85.8123L279.541 83.0345L280.372 82.8403L282.767 80.3555L283.109 79.5754L284.868 78.1141L286.871 76.9458L289.121 73.095L292.59 70.7089L293.275 69.1488L295.621 67.2004L297.037 66.5192L297.722 64.9591L299.824 62.7178L298.899 61.0096ZM352.869 168.767L337.357 157.872L331.259 153.525L329.451 155.522L325.05 162.151L324.559 164.54L318.642 172.923L318.445 175.069L313.75 181.941L318.823 185.654L336.872 198.404L339.945 200.31L340.924 198.507L341.072 196.897L343.273 193.583L343.421 191.973L345.915 188.416L346.406 186.026L348.705 181.639L349.146 179.786L351.054 176.715L350.616 175.593L354.332 170.524L352.869 168.767ZM310.918 139.21L285.503 121.184L279.893 117.422L277.742 120.2L273.977 125.805L271.144 127.167L269.53 129.994L266.743 133.796L264.934 135.793L262.931 136.962L260.095 141.3L258.873 142.81L261.116 144.91L287.555 163.572L293.409 167.627L295.02 167.775L297.563 163.681L299.128 161.39L299.276 159.781L304.313 152.129L305.535 150.618L305.683 149.009L308.52 144.671L311.649 140.089L310.918 139.21ZM260.089 103.157L250.674 96.6106L237.455 87.2796L236.625 87.4738L233.788 91.8117L230.955 93.1742L229.927 95.5143L226.458 97.9004L225.773 99.4605L222.304 101.847L220.397 104.917L218.444 105.549L217.515 106.816L217.172 107.596L215.12 109.301L213.117 110.47L215.36 112.569L236.97 127.812L239.263 129.375L241.364 127.134L243.907 123.039L246.447 121.92L251.777 114.025L254.953 111.882L260.234 104.523L260.576 103.743L260.089 103.157ZM327.767 220.831L304.645 204.368L301.815 202.755L299.664 205.533L292.183 216.206L291.349 219.376L283.575 230.293L283.232 231.073L285.475 233.173L309.378 249.978L311.671 251.542L312.501 251.348L313.529 249.007L313.677 247.398L318.958 240.039L319.448 237.649L325.072 229.51L325.905 226.341L328.985 222.296L327.767 220.831ZM282.011 188.49L259.133 172.32L245.669 162.696L243.083 161.376L236.238 171.026L234.087 173.804L233.55 173.755L231.155 176.239L222.745 188.18L223.183 189.302L234.89 197.412L259.036 214.511L263.378 217.345L265.48 215.103L273.89 203.163L274.088 201.017L280.933 191.367L282.498 189.076L282.011 188.49ZM361.416 296.422L355.414 293.977L349.118 291.775L340.675 289.375L336.966 288.493L331.646 287.463L324.959 286.578L322.567 286.087L318.515 285.985L310.705 285.537L306.653 285.435L303.919 285.725L300.941 285.721L296.596 285.863L292.495 286.297L285.366 287.265L283.218 287.067L276.821 288.914L266.078 290.901L255.481 294.255L247.13 296.733L231.94 302.911L225.444 305.83L215.528 310.599L200.434 318.679L193.546 322.914L191.2 324.863L186.658 327.15L181.137 331.241L175.665 334.796L168.434 339.812L166.919 341.566L155.876 349.748L154.068 351.745L152.358 352.67L150.55 354.668L149.133 355.349L147.081 357.054L143.711 358.367L139.366 358.509L136.73 357.725L132.926 354.941L131.219 352.89L129.711 348.694L129.813 344.646L131.331 339.916L132.702 336.796L134.563 331.287L136.816 324.461L138.335 319.731L139.755 316.074L141.323 310.808L142.549 306.322L143.481 302.08L146.571 289.109L147.602 283.794L148.485 280.088L149.223 275.016L150.254 269.701L151.338 260.873L151.292 258.434L151.931 254.436L152.669 249.364L152.92 243.706L153.022 239.658L153.269 236.975L153.519 231.318L153.282 225.074L153.19 220.196L152.805 215.562L152.663 211.221L150.967 200.245L150.532 196.147L150.585 192.635L148.977 189.512L148.299 185.121L146.938 179.315L145.674 175.412L144.214 170.679L140.515 160.871L138.713 156.918L134.816 149.256L132.527 144.717L130.577 142.374L128.482 138.665L120.974 129.047L115.611 122.603L114.682 123.87L114.775 128.748L113.836 138.941L113.783 142.453L112.752 147.768L111.819 152.011L110.64 158.935L109.803 165.08L109.164 169.079L107.398 176.491L106.808 179.953L105.534 184.976L104.308 189.462L102.2 197.654L97.5447 212.915L95.2419 220.278L93.43 225.251L91.5193 231.297L89.7074 236.27L87.1609 243.34L85.6916 247.533L83.636 252.213L81.9723 255.577L80.8457 258.99L78.79 263.67L76.0986 269.374L74.7776 271.957L72.0367 278.197L69.7373 282.585L68.3174 286.241L66.9964 288.825L63.2277 297.405L61.6135 300.232L58.4806 307.789L56.5238 311.396L53.7829 317.636L50.2086 327.046L48.4461 331.483L46.0939 339.382L44.427 345.721L43.5407 352.402L43.3397 357.523L43.6756 362.694L45.2765 371.768L49.4632 382.162L52.7771 387.336L57.1155 393.145L57.5536 394.267L59.1151 394.952L61.5033 398.418L63.0647 399.102L65.453 402.568L68.5265 404.474L69.9891 406.231L70.9147 407.939L72.4761 408.624L76.2809 411.409L80.8664 414.535L82.329 416.293L83.2546 418.001L86.3281 419.907L94.7183 425.818L96.1349 425.137L99.1589 427.579L106.768 433.148L109.697 433.688L113.258 436.179L116.187 436.719L118.967 438.868L122.139 439.701L125.262 441.07L135.803 444.204L140.293 445.428L145.956 445.678L150.838 445.586L159.92 443.987L165.781 442.091L172.277 439.172L175.989 437.079L186.445 429.384L189.035 427.728L190.843 425.731L192.553 424.806L193.238 423.246L196.071 421.883L196.756 420.323L198.466 419.398L199.589 418.961L200.91 416.377L204.086 414.234L206.287 410.92L208.24 410.288L209.462 408.778L209.854 407.461L213.274 405.611L214.595 403.028L218.357 400.398L218.749 399.082L222.511 396.452L222.903 395.135L226.958 392.262L227.986 389.922L229.452 388.704L229.989 388.754L231.748 387.292L232.14 385.976L235.902 383.346L237.223 380.763L240.642 378.913L240.741 377.84L242.55 375.842L243.087 375.892L244.846 374.43L246.117 372.383L246.605 372.969L248.364 371.508L249.342 369.704L252.225 367.805L253.203 366.001L254.864 365.613L256.379 363.859L257.015 362.835L258.382 362.691L259.897 360.936L260.533 359.913L262.829 358.501L266.298 356.115L267.227 354.848L273.334 350.269L275.631 348.858L276.853 347.347L285.843 340.87L296.885 332.688L300.598 330.595L302.65 328.89L304.066 328.209L304.995 326.941L307.535 325.822L310.174 323.63L314.717 321.343L319.895 318.032L336.699 309.027L338.751 307.323L346.127 303.673L358.826 298.078L360.487 297.689L361.416 296.422ZM222.791 146.526L206.011 134.703L197.864 129.085L196.84 128.45L195.324 130.204L194.346 132.007L192.001 133.956L190.877 134.394L188.97 137.464L185.547 142.289L182.371 144.432L180.171 147.746L178.263 150.817L174.208 153.69L176.158 156.033L190.402 166L202.354 174.402L203.134 174.745L205.579 171.723L211.202 163.584L214.378 161.442L220.93 152.035L224.01 147.99L222.791 146.526ZM286.664 261.415L273.201 251.791L271.152 250.521L269.343 252.519L259.418 266.213L258.439 268.017L259.464 268.652L264.494 266.951L275.773 265.012L286.223 263.268L287.639 262.587L286.664 261.415ZM250.567 235.914L220.323 214.467L209.64 206.993L208.029 206.845L201.477 216.251L194.631 225.901L193.653 227.704L192.236 228.386L191.113 228.824L184.561 238.23L186.56 240.037L195.975 246.583L228.511 269.593L229.879 269.448L235.795 261.066L236.629 257.896L244.403 246.979L251.542 237.085L250.567 235.914ZM188.03 191.751L177.347 184.276L172.274 180.563L172.027 183.246L172.949 187.929L174.405 195.637L175.907 205.784L175.805 209.833L176.83 210.468L185.24 198.527L188.956 193.459L188.03 191.751ZM210.528 285.523L201.113 278.976L178.235 262.806L175.699 260.949L175.014 262.509L174.618 266.801L173.979 270.8L173.241 275.872L172.602 279.871L171.864 284.943L170.148 291.818L169.657 294.208L168.774 297.914L166.224 307.959L165.634 311.421L166.366 312.3L169.199 310.937L175.55 306.652L185.907 300.03L188.79 298.131L207.01 288.445L211.016 286.108L210.528 285.523ZM116.743 463.01L110.985 460.857L107.325 459.439L104.251 457.533L101.86 457.042L96.7867 453.33L94.6389 453.132L80.3949 443.166L78.1021 441.603L75.4174 441.356L73.6616 439.842L73.7604 438.769L72.0046 437.255L57.5169 426.996L56.5418 425.824L55.6162 424.116L50.25 420.647L49.13 418.109L45.5196 416.154L43.912 413.031L42.1068 412.053L41.6687 410.931L39.9624 408.88L39.4254 408.831L37.0305 411.316L26.469 426.034L24.6572 431.007L24.41 433.69L24.6011 437.494L25.7671 442.471L27.9116 445.644L29.6674 447.158L29.618 447.694L31.8613 449.794L55.7638 466.6L82.2028 485.262L85.3751 486.094L87.961 487.414L92.0129 487.516L98.0676 486.45L101.536 484.064L104.712 481.921L109.406 475.049L116.838 464.912L117.23 463.596L116.743 463.01Z" fill="#FEC526"/>
<path d="M210.528 285.523L201.113 278.976L178.235 262.806L175.699 260.949L175.014 262.509L174.618 266.801L173.979 270.8L173.241 275.872L172.602 279.871L171.864 284.943L170.148 291.818L169.657 294.208L168.774 297.914L166.224 307.959L165.634 311.421L166.366 312.3L169.199 310.937L175.55 306.652L185.907 300.03L188.79 298.131L207.01 288.445L211.016 286.108L210.528 285.523Z" fill="#FEC526"/>
<path d="M286.664 261.415L273.201 251.791L271.152 250.521L269.343 252.519L259.418 266.213L258.439 268.017L259.464 268.652L264.494 266.951L275.773 265.012L286.223 263.268L287.639 262.587L286.664 261.415Z" fill="#FEC526"/>
<path d="M188.03 191.751L177.347 184.276L172.274 180.563L172.027 183.246L172.949 187.929L174.405 195.637L175.907 205.784L175.805 209.833L176.83 210.468L185.24 198.527L188.956 193.459L188.03 191.751Z" fill="#FEC526"/>
<path d="M282.011 188.49L259.133 172.32L245.669 162.696L243.083 161.376L236.238 171.026L234.087 173.804L233.55 173.755L231.155 176.239L222.745 188.18L223.183 189.302L234.89 197.412L259.036 214.511L263.378 217.345L265.48 215.103L273.89 203.163L274.088 201.017L280.933 191.367L282.498 189.076L282.011 188.49Z" fill="#FEC526"/>
<path d="M327.767 220.831L304.645 204.368L301.815 202.755L299.664 205.533L292.183 216.206L291.349 219.376L283.575 230.293L283.232 231.073L285.475 233.173L309.378 249.978L311.671 251.542L312.501 251.348L313.529 249.007L313.677 247.398L318.958 240.039L319.448 237.649L325.072 229.51L325.905 226.341L328.985 222.296L327.767 220.831Z" fill="#FEC526"/>
<path d="M352.869 168.767L337.357 157.872L331.259 153.525L329.451 155.522L325.05 162.151L324.559 164.54L318.642 172.923L318.445 175.069L313.75 181.941L318.823 185.654L336.872 198.404L339.945 200.31L340.924 198.507L341.072 196.897L343.273 193.583L343.421 191.973L345.915 188.416L346.406 186.026L348.705 181.639L349.146 179.786L351.054 176.715L350.616 175.593L354.332 170.524L352.869 168.767Z" fill="#FEC526"/>
<path d="M310.918 139.21L285.503 121.184L279.893 117.422L277.742 120.2L273.977 125.805L271.144 127.167L269.53 129.994L266.743 133.796L264.934 135.793L262.931 136.962L260.095 141.3L258.873 142.81L261.116 144.91L287.555 163.572L293.409 167.627L295.02 167.775L297.563 163.681L299.128 161.39L299.276 159.781L304.313 152.129L305.535 150.618L305.683 149.009L308.52 144.671L311.649 140.089L310.918 139.21Z" fill="#FEC526"/>
<path d="M260.089 103.157L250.674 96.6106L237.455 87.2796L236.625 87.4738L233.788 91.8117L230.955 93.1742L229.927 95.5143L226.458 97.9004L225.773 99.4605L222.304 101.847L220.397 104.917L218.444 105.549L217.515 106.816L217.172 107.596L215.12 109.301L213.117 110.47L215.36 112.569L236.97 127.812L239.263 129.375L241.364 127.134L243.907 123.039L246.447 121.92L251.777 114.025L254.953 111.882L260.234 104.523L260.576 103.743L260.089 103.157Z" fill="#FEC526"/>
<path d="M222.791 146.526L206.011 134.703L197.864 129.085L196.84 128.45L195.324 130.204L194.346 132.007L192.001 133.956L190.877 134.394L188.97 137.464L185.547 142.289L182.371 144.432L180.171 147.746L178.263 150.817L174.208 153.69L176.158 156.033L190.402 166L202.354 174.402L203.134 174.745L205.579 171.723L211.202 163.584L214.378 161.442L220.93 152.035L224.01 147.99L222.791 146.526Z" fill="#FEC526"/>
<path d="M298.899 61.0096L284.411 50.7505L277.766 55.2792L272.832 58.883L269.998 60.2456L268.727 62.2927L267.31 62.974L261.789 67.065L256.219 71.6924L260.023 74.4769L270.706 81.9516L276.56 86.0065L277.39 85.8123L279.541 83.0345L280.372 82.8403L282.767 80.3555L283.109 79.5754L284.868 78.1141L286.871 76.9458L289.121 73.095L292.59 70.7089L293.275 69.1488L295.621 67.2004L297.037 66.5192L297.722 64.9591L299.824 62.7178L298.899 61.0096Z" fill="#FEC526"/>
<path d="M337.289 88.0743L324.069 78.7434L319.484 75.6166L318.654 75.8107L316.404 79.6615L313.228 81.8041L311.321 84.8748L309.611 85.7996L308.488 86.2374L306.238 90.0881L304.478 91.5494L302.769 92.4742L301.448 95.0579L297.979 97.444L296.414 99.7347L298.414 101.542L317.731 115.22L322.072 118.054L323.782 117.129L324.81 114.789L325.251 112.936L327.745 109.379L328.236 106.989L331.415 101.871L331.563 100.262L334.742 95.1439L334.891 93.5345L338.02 88.9531L337.289 88.0743Z" fill="#FEC526"/>
<path d="M372.118 112.648L357.874 102.681L356.751 103.119L353.914 107.457L353.423 109.846L350.88 113.941L350.096 116.574L347.26 120.912L346.769 123.301L344.275 126.859L343.784 129.248L342.17 132.075L344.17 133.882L362.218 146.633L363.049 146.439L363.882 143.269L365.595 139.369L366.821 134.883L367.947 131.47L368.975 129.13L369.565 125.668L372.602 116.209L373.093 113.819L372.118 112.648Z" fill="#FEC526"/>
<path d="M377.755 48.5138L376.777 50.3174L375.453 55.8764L373.199 62.7024L371.73 66.8955L369.625 72.1121L369.183 73.9651L367.813 77.0852L366.736 79.9618L368.248 81.1829L376.882 87.387L378.493 87.5352L378.694 82.4139L379.333 78.4151L379.679 74.6597L379.781 70.6115L379.837 64.1244L379.257 58.6608L379.261 55.6855L378.437 49.9291L377.755 48.5138Z" fill="#FEC526"/>
<path d="M352.321 48.339L351.784 48.2896L346.849 51.8935L342.158 55.7903L337.517 59.1506L340.784 61.8857L346.882 66.2336L347.811 64.9664L349.379 59.7004L350.749 56.5803L351.925 52.6308L353.052 49.2178L352.321 48.339Z" fill="#FEC526"/>
<path d="M343.951 24.5759L339.019 25.2044L334.868 26.1753L330.962 27.4391L326.224 28.897L316.114 32.8365L310.155 35.8052L308.202 36.4371L307.029 37.4113L309.516 39.8041L316.882 45.0801L318.493 45.2282L322.597 41.8185L323.526 40.5514L324.356 40.3572L326.116 38.8959L327.338 37.3852L329.341 36.2169L330.856 34.4627L332.859 33.2943L344.194 24.8688L343.951 24.5759Z" fill="#FEC526"/>
<path d="M250.567 235.914L220.323 214.467L209.64 206.993L208.029 206.845L201.477 216.251L194.631 225.901L193.653 227.704L192.236 228.386L191.113 228.824L184.561 238.23L186.56 240.037L195.975 246.583L228.511 269.593L229.879 269.448L235.795 261.066L236.629 257.896L244.403 246.979L251.542 237.085L250.567 235.914Z" fill="#FEC526"/>
<path d="M361.416 296.422L355.414 293.977L349.118 291.775L340.675 289.375L336.966 288.493L331.646 287.463L324.959 286.578L322.567 286.087L318.515 285.985L310.705 285.537L306.653 285.435L303.919 285.725L300.941 285.721L296.596 285.863L292.495 286.297L285.366 287.265L283.218 287.067L276.821 288.914L266.078 290.901L255.481 294.255L247.13 296.733L231.94 302.911L225.444 305.83L215.528 310.599L200.434 318.679L193.546 322.914L191.2 324.863L186.658 327.15L181.137 331.241L175.665 334.796L168.434 339.812L166.919 341.566L155.876 349.748L154.068 351.745L152.358 352.67L150.55 354.668L149.133 355.349L147.081 357.054L143.711 358.367L139.366 358.509L136.73 357.725L132.926 354.941L131.219 352.89L129.711 348.694L129.813 344.646L131.331 339.916L132.702 336.796L134.563 331.287L136.816 324.461L138.335 319.731L139.755 316.074L141.323 310.808L142.549 306.322L143.481 302.08L146.571 289.109L147.602 283.794L148.485 280.088L149.223 275.016L150.254 269.701L151.338 260.873L151.292 258.434L151.931 254.436L152.669 249.364L152.92 243.706L153.022 239.658L153.269 236.975L153.519 231.318L153.282 225.074L153.19 220.196L152.805 215.562L152.663 211.221L150.967 200.245L150.532 196.147L150.585 192.635L148.977 189.512L148.299 185.121L146.938 179.315L145.674 175.412L144.214 170.679L140.515 160.871L138.713 156.918L134.816 149.256L132.527 144.717L130.577 142.374L128.482 138.665L120.974 129.047L115.611 122.603L114.682 123.87L114.775 128.748L113.836 138.941L113.783 142.453L112.752 147.768L111.819 152.011L110.64 158.935L109.803 165.08L109.164 169.079L107.398 176.491L106.808 179.953L105.534 184.976L104.308 189.462L102.2 197.654L97.5447 212.915L95.2419 220.278L93.43 225.251L91.5193 231.297L89.7074 236.27L87.1609 243.34L85.6916 247.533L83.636 252.213L81.9723 255.577L80.8457 258.99L78.79 263.67L76.0986 269.374L74.7776 271.957L72.0367 278.197L69.7373 282.585L68.3174 286.241L66.9964 288.825L63.2277 297.405L61.6135 300.232L58.4806 307.789L56.5238 311.396L53.7829 317.636L50.2086 327.046L48.4461 331.483L46.0939 339.382L44.427 345.721L43.5407 352.402L43.3397 357.523L43.6756 362.694L45.2765 371.768L49.4632 382.162L52.7771 387.336L57.1155 393.145L57.5536 394.267L59.1151 394.952L61.5033 398.418L63.0647 399.102L65.453 402.568L68.5265 404.474L69.9891 406.231L70.9147 407.939L72.4761 408.624L76.2809 411.409L80.8664 414.535L82.329 416.293L83.2546 418.001L86.3281 419.907L94.7183 425.818L96.1349 425.137L99.1589 427.579L106.768 433.148L109.697 433.688L113.258 436.179L116.187 436.719L118.967 438.868L122.139 439.701L125.262 441.07L135.803 444.204L140.293 445.428L145.956 445.678L150.838 445.586L159.92 443.987L165.781 442.091L172.277 439.172L175.989 437.079L186.445 429.384L189.035 427.728L190.843 425.731L192.553 424.806L193.238 423.246L196.071 421.883L196.756 420.323L198.466 419.398L199.589 418.961L200.91 416.377L204.086 414.234L206.287 410.92L208.24 410.288L209.462 408.778L209.854 407.461L213.274 405.611L214.595 403.028L218.357 400.398L218.749 399.082L222.511 396.452L222.903 395.135L226.958 392.262L227.986 389.922L229.452 388.704L229.989 388.754L231.748 387.292L232.14 385.976L235.902 383.346L237.223 380.763L240.642 378.913L240.741 377.84L242.55 375.842L243.087 375.892L244.846 374.43L246.117 372.383L246.605 372.969L248.364 371.508L249.342 369.704L252.225 367.805L253.203 366.001L254.864 365.613L256.379 363.859L257.015 362.835L258.382 362.691L259.897 360.936L260.533 359.913L262.829 358.501L266.298 356.115L267.227 354.848L273.334 350.269L275.631 348.858L276.853 347.347L285.843 340.87L296.885 332.688L300.598 330.595L302.65 328.89L304.066 328.209L304.995 326.941L307.535 325.822L310.174 323.63L314.717 321.343L319.895 318.032L336.699 309.027L338.751 307.323L346.127 303.673L358.826 298.078L360.487 297.689L361.416 296.422Z" fill="white"/>
<path d="M116.743 463.01L110.985 460.857L107.325 459.439L104.251 457.533L101.86 457.042L96.7867 453.33L94.6389 453.132L80.3949 443.166L78.1021 441.603L75.4174 441.356L73.6616 439.842L73.7604 438.769L72.0046 437.255L57.5169 426.996L56.5418 425.824L55.6162 424.116L50.25 420.647L49.13 418.109L45.5196 416.154L43.912 413.031L42.1068 412.053L41.6687 410.931L39.9624 408.88L39.4254 408.831L37.0305 411.316L26.469 426.034L24.6572 431.007L24.41 433.69L24.6011 437.494L25.7671 442.471L27.9116 445.644L29.6674 447.158L29.618 447.694L31.8613 449.794L55.7638 466.6L82.2028 485.262L85.3751 486.094L87.961 487.414L92.0129 487.516L98.0676 486.45L101.536 484.064L104.712 481.921L109.406 475.049L116.838 464.912L117.23 463.596L116.743 463.01Z" fill="white"/>
</svg>
