<svg width="917" height="518" viewBox="0 0 917 518" fill="none" xmlns="http://www.w3.org/2000/svg">
<mask id="path-1-outside-1_870_303" maskUnits="userSpaceOnUse" x="56.7136" y="25.2342" width="784.281" height="501.68" fill="black">
<rect fill="white" x="56.7136" y="25.2342" width="784.281" height="501.68"/>
<path d="M298.597 297.876C278.713 299.617 261.104 297.539 245.772 291.642C230.425 285.578 218.241 276.206 209.219 263.526C200.197 250.846 194.912 235.651 193.364 217.939C191.217 193.376 193.906 171.168 201.432 151.315C209.124 131.447 220.455 115.638 235.424 103.888C250.378 91.9713 267.546 85.1641 286.929 83.4666C304.976 81.8862 319.086 85.3648 329.262 93.9025C339.422 102.273 345.167 114.061 346.496 129.266C347.387 139.459 346.264 147.808 343.129 154.312C340.16 160.802 335.334 164.339 328.65 164.924C323.971 165.334 320.2 164.57 317.337 162.632C314.473 160.694 312.859 157.636 312.494 153.459C312.363 151.955 312.456 149.169 312.774 145.1C313.338 140 313.489 135.945 313.226 132.938C311.897 117.732 303.128 110.839 286.92 112.259C275.892 113.225 265.679 117.739 256.281 125.802C246.883 133.865 239.706 145.185 234.751 159.762C229.78 174.172 228.135 190.985 229.814 210.201C231.567 230.252 238.523 245.301 250.682 255.349C262.827 265.229 279.844 269.211 301.733 267.294C312.595 266.343 323.423 264.048 334.217 260.408C345.164 256.587 357.157 251.244 370.195 244.377C372.614 243.155 374.659 242.471 376.33 242.325C379.004 242.091 381.096 242.917 382.608 244.806C384.12 246.694 385.015 249.225 385.293 252.4C386.183 262.592 381.326 270.594 370.722 276.406C359.311 282.625 347.281 287.551 334.634 291.184C322.139 294.635 310.127 296.866 298.597 297.876Z"/>
<path d="M487.461 202.538C489.633 202.348 491.399 203.288 492.758 205.357C494.118 207.427 494.944 210.133 495.236 213.475C495.937 221.495 493.93 226.47 489.216 228.398C479.497 232.785 468.644 235.756 456.656 237.311C454.708 251.624 449.428 263.452 440.815 272.793C432.188 281.967 421.943 287.074 410.079 288.113C400.053 288.991 391.236 287.321 383.627 283.105C376.186 278.874 370.277 272.909 365.899 265.211C361.522 257.512 358.925 248.984 358.107 239.627C356.997 226.928 358.434 215.437 362.418 205.154C366.388 194.704 372.393 186.349 380.433 180.089C388.458 173.662 397.651 169.994 408.01 169.087C420.71 167.975 431.29 171.51 439.75 179.693C448.363 187.694 453.9 198.069 456.361 210.818C464.171 209.629 473.382 207.138 483.995 203.347C485.303 202.895 486.458 202.626 487.461 202.538ZM409.762 261.369C415.109 260.901 419.514 258.326 422.978 253.645C426.609 248.95 428.734 242.45 429.356 234.145C423.869 231.09 419.457 226.846 416.12 221.414C412.95 215.967 411.087 210.068 410.532 203.719C410.299 201.045 410.316 198.35 410.583 195.633L409.33 195.742C402.646 196.328 397.333 200.076 393.391 206.988C389.602 213.718 388.218 222.931 389.24 234.628C390.044 243.818 392.411 250.682 396.344 255.22C400.444 259.744 404.916 261.794 409.762 261.369Z"/>
<path d="M497.346 280.47C490.997 281.026 486.193 278.079 482.935 271.63C479.845 265.166 477.657 254.582 476.371 239.877C474.473 218.155 475.761 197.249 480.234 177.158C481.315 172.18 483.431 168.459 486.583 165.994C489.888 163.348 494.631 161.754 500.814 161.212C504.156 160.92 506.531 161.132 507.941 161.851C509.351 162.569 510.158 164.098 510.363 166.437C510.596 169.111 509.869 175.236 508.18 184.813C507.093 191.643 506.268 197.608 505.703 202.708C505.139 207.809 504.844 214.065 504.818 221.475C509.076 206.622 514.236 194.384 520.299 184.761C526.361 175.139 532.483 168.12 538.664 163.706C545.011 159.278 550.943 156.822 556.457 156.339C567.318 155.388 573.223 160.343 574.172 171.204C574.362 173.376 574.07 178.705 573.297 187.192C572.544 193.993 572.241 198.228 572.387 199.899C572.898 205.748 575.242 208.489 579.42 208.123C584.098 207.713 589.793 203.51 596.502 195.514C598.485 193.152 600.645 191.868 602.985 191.663C605.157 191.473 606.916 192.329 608.261 194.232C609.758 195.953 610.645 198.401 610.923 201.576C611.463 207.758 610.216 212.75 607.181 216.552C602.925 221.807 597.776 226.467 591.733 230.532C585.843 234.416 579.389 236.664 572.371 237.279C563.515 238.055 556.55 236.392 551.477 232.29C546.571 228.173 543.782 222.272 543.11 214.586C542.891 212.079 542.923 209.551 543.205 207.001C543.247 203.63 543.217 201.359 543.115 200.19C542.881 197.516 541.846 196.26 540.007 196.421C537.501 196.64 534.407 199.774 530.727 205.821C527.198 211.686 523.83 219.389 520.623 228.93C517.416 238.472 515.005 248.448 513.389 258.861C512.238 266.875 510.533 272.412 508.275 275.472C506.169 278.35 502.526 280.016 497.346 280.47Z"/>
<path d="M611.409 270.481C605.059 271.037 600.255 268.09 596.998 261.641C593.907 255.177 591.719 244.592 590.434 229.888C588.535 208.166 589.823 187.26 594.297 167.169C595.377 162.191 597.494 158.47 600.646 156.005C603.95 153.359 608.694 151.765 614.876 151.223C618.218 150.93 620.594 151.143 622.004 151.862C623.414 152.58 624.221 154.109 624.425 156.448C624.659 159.122 623.931 165.247 622.243 174.823C621.156 181.653 620.33 187.619 619.766 192.719C619.201 197.82 618.906 204.075 618.881 211.486C623.139 196.633 628.299 184.395 634.361 174.772C640.424 165.149 646.545 158.131 652.726 153.717C659.074 149.289 665.005 146.833 670.519 146.35C675.866 145.882 680.001 146.951 682.923 149.557C685.997 151.982 687.768 155.868 688.235 161.215C688.615 165.559 688.411 173.827 687.625 186.019C686.845 196.358 686.355 206.166 686.156 215.444C685.942 224.555 686.324 234.708 687.302 245.903C687.857 252.253 686.922 256.965 684.497 260.039C682.224 262.932 678.164 264.635 672.315 265.147C666.801 265.63 662.667 264.561 659.912 261.94C657.157 259.319 655.532 255.168 655.035 249.487C654.451 242.803 654.657 231.672 655.652 216.095C656.489 202.552 656.747 193.943 656.426 190.267C656.192 187.593 655.156 186.337 653.318 186.498C651.146 186.688 648.303 189.799 644.789 195.832C641.428 201.682 638.06 209.386 634.686 218.941C631.479 228.483 629.068 238.459 627.452 248.872C626.3 256.886 624.595 262.423 622.337 265.483C620.232 268.361 616.589 270.027 611.409 270.481Z"/>
<path d="M204.097 503.461C184.212 505.203 166.604 503.125 151.271 497.228C135.924 491.163 123.74 481.791 114.718 469.112C105.696 456.432 100.411 441.236 98.8633 423.525C96.7165 398.962 99.4058 376.754 106.931 356.901C114.624 337.033 125.954 321.224 140.923 309.474C155.877 297.557 173.046 290.75 192.429 289.052C210.475 287.472 224.586 290.951 234.761 299.488C244.922 307.859 250.666 319.647 251.995 334.852C252.886 345.045 251.764 353.393 248.628 359.898C245.659 366.387 240.833 369.925 234.149 370.51C229.471 370.92 225.7 370.156 222.836 368.218C219.973 366.28 218.359 363.222 217.993 359.045C217.862 357.541 217.955 354.755 218.273 350.686C218.838 345.585 218.988 341.531 218.726 338.524C217.397 323.318 208.628 316.425 192.42 317.845C181.391 318.81 171.178 323.325 161.78 331.388C152.383 339.451 145.206 350.771 140.25 365.348C135.28 379.758 133.634 396.571 135.314 415.787C137.066 435.838 144.022 450.887 156.181 460.935C168.326 470.815 185.343 474.797 207.233 472.88C218.094 471.929 228.922 469.634 239.717 465.994C250.664 462.173 262.657 456.829 275.695 449.963C278.114 448.741 280.158 448.057 281.829 447.91C284.503 447.676 286.596 448.503 288.108 450.391C289.62 452.279 290.514 454.811 290.792 457.986C291.683 468.178 286.826 476.18 276.221 481.992C264.81 488.211 252.781 493.137 240.133 496.77C227.639 500.221 215.626 502.452 204.097 503.461Z"/>
<path d="M292.21 495.745C285.86 496.301 281.057 493.354 277.799 486.905C274.708 480.44 272.52 469.856 271.235 455.152C269.337 433.43 270.624 412.524 275.098 392.432C276.178 387.455 278.295 383.734 281.447 381.269C284.751 378.622 289.495 377.028 295.677 376.487C299.019 376.194 301.395 376.407 302.805 377.126C304.215 377.844 305.022 379.373 305.226 381.712C305.46 384.386 304.733 390.511 303.044 400.087C301.957 406.917 301.131 412.883 300.567 417.983C300.003 423.084 299.707 429.339 299.682 436.75C303.94 421.897 309.1 409.659 315.162 400.036C321.225 390.413 327.346 383.395 333.527 378.981C339.875 374.553 345.806 372.097 351.32 371.614C362.182 370.663 368.087 375.618 369.036 386.479C369.226 388.651 368.934 393.98 368.16 402.466C367.408 409.267 367.105 413.503 367.251 415.174C367.762 421.022 370.106 423.763 374.283 423.398C378.962 422.988 384.656 418.785 391.366 410.789C393.348 408.427 395.509 407.143 397.848 406.938C400.021 406.748 401.779 407.604 403.124 409.507C404.622 411.228 405.509 413.676 405.787 416.85C406.327 423.033 405.079 428.025 402.044 431.826C397.789 437.082 392.64 441.742 386.597 445.807C380.707 449.69 374.252 451.939 367.234 452.554C358.378 453.329 351.414 451.666 346.341 447.565C341.435 443.448 338.646 437.547 337.974 429.861C337.755 427.354 337.787 424.826 338.069 422.276C338.111 418.905 338.081 416.634 337.979 415.464C337.745 412.791 336.709 411.535 334.871 411.696C332.365 411.915 329.271 415.048 325.59 421.095C322.062 426.961 318.694 434.664 315.487 444.205C312.28 453.747 309.869 463.723 308.253 474.135C307.101 482.15 305.396 487.687 303.138 490.747C301.033 493.625 297.39 495.291 292.21 495.745Z"/>
<path d="M414.042 485.075C406.523 485.734 400.041 482.85 394.597 476.423C389.304 469.815 386.206 461.331 385.3 450.972C384.205 438.44 384.04 426.921 384.806 416.415C385.556 405.742 387.342 394.389 390.163 382.356C391.396 377.196 393.421 373.399 396.239 370.963C399.057 368.528 403.724 367.025 410.241 366.454C413.917 366.132 416.475 366.497 417.914 367.55C419.52 368.588 420.425 370.277 420.63 372.616C420.747 373.953 420.222 378.545 419.056 386.392C417.925 392.72 417.077 398.435 416.513 403.536C414.705 421.373 414.056 433.216 414.567 439.064C414.874 442.573 415.51 445.043 416.477 446.473C417.43 447.737 418.825 448.288 420.663 448.127C423.169 447.908 426.042 445.131 429.28 439.796C432.685 434.447 436.03 426.493 439.317 415.934C442.771 405.361 445.853 392.464 448.563 377.241C449.462 372.111 451.153 368.343 453.637 365.937C456.288 363.516 460.37 362.064 465.884 361.581C469.727 361.245 472.445 361.512 474.036 362.382C475.613 363.086 476.511 364.691 476.73 367.198C477.095 371.375 476.007 383.004 473.465 402.084C470.656 423.881 469.47 437.287 469.908 442.299C470.186 445.474 471.073 447.922 472.571 449.643C474.054 451.197 475.881 451.879 478.053 451.688C481.395 451.396 485.147 449.047 489.308 444.641C493.621 440.054 499.22 432.829 506.103 422.966C507.904 420.451 510.057 419.084 512.564 418.864C514.736 418.674 516.494 419.53 517.839 421.433C519.351 423.321 520.261 426.02 520.567 429.529C521.152 436.212 520.017 441.531 517.163 445.485C510.752 454.97 503.618 462.919 495.759 469.332C488.068 475.73 478.959 479.39 468.432 480.312C460.411 481.015 454.209 478.443 449.826 472.597C445.609 466.737 443.012 458.209 442.033 447.013C440.186 458.625 436.692 467.77 431.551 474.45C426.395 480.963 420.559 484.505 414.042 485.075Z"/>
<path d="M522.048 475.617C515.699 476.173 510.895 473.226 507.637 466.776C504.547 460.312 502.359 449.728 501.074 435.024C499.175 413.302 500.463 392.395 504.937 372.304C506.017 367.327 508.133 363.606 511.285 361.141C514.59 358.494 519.333 356.9 525.516 356.359C528.858 356.066 531.234 356.279 532.643 356.997C534.053 357.716 534.86 359.245 535.065 361.584C535.298 364.257 534.571 370.382 532.882 379.959C531.796 386.789 530.97 392.754 530.406 397.855C529.841 402.956 529.546 409.211 529.52 416.622C533.778 401.769 538.939 389.531 545.001 379.908C551.063 370.285 557.185 363.267 563.366 358.853C569.714 354.424 575.645 351.969 581.159 351.486C592.02 350.535 597.925 355.49 598.875 366.351C599.444 372.867 598.636 384.808 596.449 402.173C594.545 416.989 593.797 426.735 594.206 431.414C594.79 438.098 597.505 441.227 602.351 440.803C605.693 440.51 609.445 438.161 613.606 433.756C617.919 429.169 623.518 421.944 630.401 412.081C632.201 409.566 634.355 408.198 636.861 407.979C639.034 407.789 640.792 408.645 642.137 410.548C643.649 412.436 644.559 415.134 644.865 418.643C645.45 425.327 644.315 430.646 641.461 434.6C635.05 444.085 627.916 452.034 620.057 458.447C612.366 464.845 603.257 468.505 592.73 469.427C584.208 470.173 577.563 468.314 572.795 463.848C568.012 459.216 565.212 452.221 564.394 442.864C563.985 438.186 564.425 429.729 565.713 417.493C566.965 406.776 567.416 399.412 567.065 395.402C566.832 392.729 565.796 391.472 563.958 391.633C561.785 391.824 558.942 394.935 555.429 400.967C552.067 406.818 548.7 414.521 545.326 424.077C542.118 433.618 539.707 443.595 538.092 454.007C536.94 462.021 535.235 467.559 532.977 470.619C530.871 473.497 527.228 475.163 522.048 475.617Z"/>
<path d="M676.468 462.093C660.093 463.527 646.909 460.052 636.915 451.667C627.074 443.1 621.489 431.213 620.16 416.008C618.977 402.474 620.614 390.376 625.07 379.715C629.526 369.054 635.774 360.593 643.814 354.333C651.854 348.073 660.553 344.533 669.91 343.713C679.101 342.909 686.443 345.044 691.938 350.119C697.585 355.012 700.781 361.72 701.526 370.241C702.139 377.259 701.07 383.33 698.319 388.454C695.735 393.563 691.936 396.337 686.924 396.776C683.749 397.054 681.093 396.529 678.956 395.2C676.987 393.858 675.885 391.849 675.652 389.176C675.549 388.006 675.6 386.655 675.803 385.122C676.005 383.589 676.161 382.481 676.27 381.798C676.886 379.218 677.099 376.842 676.91 374.67C676.72 372.498 675.989 370.878 674.717 369.811C673.612 368.729 672.057 368.276 670.052 368.452C666.209 368.788 662.77 370.857 659.734 374.659C656.684 378.293 654.413 383.122 652.919 389.146C651.425 395.17 650.984 401.691 651.598 408.709C653.292 428.092 662.577 437.044 679.454 435.566C686.305 434.966 693.46 432.066 700.919 426.867C708.531 421.486 715.778 413.864 722.661 404.001C724.462 401.486 726.616 400.119 729.122 399.899C731.294 399.709 733.053 400.565 734.398 402.468C735.91 404.356 736.819 407.054 737.126 410.563C737.681 416.913 736.546 422.232 733.722 426.52C726.715 436.899 717.932 445.245 707.371 451.558C696.962 457.689 686.661 461.201 676.468 462.093Z"/>
<path d="M799.284 332.384C804.631 331.915 808.765 332.984 811.687 335.591C814.761 338.015 816.532 341.901 816.999 347.248C817.379 351.593 817.176 359.861 816.389 372.052C815.609 382.391 815.119 392.2 814.92 401.477C814.706 410.588 815.088 420.741 816.067 431.936C816.622 438.286 815.687 442.998 813.261 446.073C810.989 448.966 806.928 450.668 801.08 451.18C795.565 451.663 791.431 450.594 788.676 447.973C785.922 445.352 784.296 441.201 783.799 435.52C783.215 428.836 783.421 417.706 784.417 402.128C785.254 388.585 785.511 379.976 785.19 376.3C784.956 373.626 783.921 372.37 782.082 372.531C779.91 372.721 777.067 375.833 773.554 381.865C770.025 387.73 766.657 395.433 763.45 404.975C760.243 414.516 757.832 424.493 756.216 434.905C755.065 442.919 753.36 448.456 751.102 451.516C748.996 454.395 745.353 456.061 740.173 456.514C734.993 456.968 730.989 455.467 728.162 452.01C725.486 448.372 723.388 442.663 721.866 434.882C720.344 427.102 718.919 415.609 717.59 400.404C715.341 374.672 715.587 347.627 718.328 319.269C721.236 290.896 726.961 266.823 735.504 247.049C744.199 227.093 755.732 216.486 770.102 215.227C777.788 214.554 784.263 217.355 789.526 223.628C794.941 229.721 798.109 238.03 799.029 248.557C800.504 265.433 797.108 283.41 788.841 302.486C780.56 321.395 766.366 343.937 746.26 370.112C746.518 378.845 747.049 387.806 747.852 396.996C752.125 382.31 757.216 370.247 763.126 360.806C769.188 351.183 775.31 344.164 781.491 339.751C787.838 335.322 793.769 332.866 799.284 332.384ZM767.007 240.501C763.999 240.765 761.037 245.402 758.12 254.413C755.189 263.256 752.611 275.184 750.388 290.195C748.316 305.025 746.947 321.14 746.279 338.541C755.572 325.436 762.933 311.406 768.361 296.45C773.956 281.481 776.242 268.147 775.22 256.451C774.753 251.104 773.81 247.061 772.392 244.323C770.974 241.585 769.179 240.311 767.007 240.501Z"/>
</mask>
<path d="M298.597 297.876C278.713 299.617 261.104 297.539 245.772 291.642C230.425 285.578 218.241 276.206 209.219 263.526C200.197 250.846 194.912 235.651 193.364 217.939C191.217 193.376 193.906 171.168 201.432 151.315C209.124 131.447 220.455 115.638 235.424 103.888C250.378 91.9713 267.546 85.1641 286.929 83.4666C304.976 81.8862 319.086 85.3648 329.262 93.9025C339.422 102.273 345.167 114.061 346.496 129.266C347.387 139.459 346.264 147.808 343.129 154.312C340.16 160.802 335.334 164.339 328.65 164.924C323.971 165.334 320.2 164.57 317.337 162.632C314.473 160.694 312.859 157.636 312.494 153.459C312.363 151.955 312.456 149.169 312.774 145.1C313.338 140 313.489 135.945 313.226 132.938C311.897 117.732 303.128 110.839 286.92 112.259C275.892 113.225 265.679 117.739 256.281 125.802C246.883 133.865 239.706 145.185 234.751 159.762C229.78 174.172 228.135 190.985 229.814 210.201C231.567 230.252 238.523 245.301 250.682 255.349C262.827 265.229 279.844 269.211 301.733 267.294C312.595 266.343 323.423 264.048 334.217 260.408C345.164 256.587 357.157 251.244 370.195 244.377C372.614 243.155 374.659 242.471 376.33 242.325C379.004 242.091 381.096 242.917 382.608 244.806C384.12 246.694 385.015 249.225 385.293 252.4C386.183 262.592 381.326 270.594 370.722 276.406C359.311 282.625 347.281 287.551 334.634 291.184C322.139 294.635 310.127 296.866 298.597 297.876Z" fill="white"/>
<path d="M487.461 202.538C489.633 202.348 491.399 203.288 492.758 205.357C494.118 207.427 494.944 210.133 495.236 213.475C495.937 221.495 493.93 226.47 489.216 228.398C479.497 232.785 468.644 235.756 456.656 237.311C454.708 251.624 449.428 263.452 440.815 272.793C432.188 281.967 421.943 287.074 410.079 288.113C400.053 288.991 391.236 287.321 383.627 283.105C376.186 278.874 370.277 272.909 365.899 265.211C361.522 257.512 358.925 248.984 358.107 239.627C356.997 226.928 358.434 215.437 362.418 205.154C366.388 194.704 372.393 186.349 380.433 180.089C388.458 173.662 397.651 169.994 408.01 169.087C420.71 167.975 431.29 171.51 439.75 179.693C448.363 187.694 453.9 198.069 456.361 210.818C464.171 209.629 473.382 207.138 483.995 203.347C485.303 202.895 486.458 202.626 487.461 202.538ZM409.762 261.369C415.109 260.901 419.514 258.326 422.978 253.645C426.609 248.95 428.734 242.45 429.356 234.145C423.869 231.09 419.457 226.846 416.12 221.414C412.95 215.967 411.087 210.068 410.532 203.719C410.299 201.045 410.316 198.35 410.583 195.633L409.33 195.742C402.646 196.328 397.333 200.076 393.391 206.988C389.602 213.718 388.218 222.931 389.24 234.628C390.044 243.818 392.411 250.682 396.344 255.22C400.444 259.744 404.916 261.794 409.762 261.369Z" fill="white"/>
<path d="M497.346 280.47C490.997 281.026 486.193 278.079 482.935 271.63C479.845 265.166 477.657 254.582 476.371 239.877C474.473 218.155 475.761 197.249 480.234 177.158C481.315 172.18 483.431 168.459 486.583 165.994C489.888 163.348 494.631 161.754 500.814 161.212C504.156 160.92 506.531 161.132 507.941 161.851C509.351 162.569 510.158 164.098 510.363 166.437C510.596 169.111 509.869 175.236 508.18 184.813C507.093 191.643 506.268 197.608 505.703 202.708C505.139 207.809 504.844 214.065 504.818 221.475C509.076 206.622 514.236 194.384 520.299 184.761C526.361 175.139 532.483 168.12 538.664 163.706C545.011 159.278 550.943 156.822 556.457 156.339C567.318 155.388 573.223 160.343 574.172 171.204C574.362 173.376 574.07 178.705 573.297 187.192C572.544 193.993 572.241 198.228 572.387 199.899C572.898 205.748 575.242 208.489 579.42 208.123C584.098 207.713 589.793 203.51 596.502 195.514C598.485 193.152 600.645 191.868 602.985 191.663C605.157 191.473 606.916 192.329 608.261 194.232C609.758 195.953 610.645 198.401 610.923 201.576C611.463 207.758 610.216 212.75 607.181 216.552C602.925 221.807 597.776 226.467 591.733 230.532C585.843 234.416 579.389 236.664 572.371 237.279C563.515 238.055 556.55 236.392 551.477 232.29C546.571 228.173 543.782 222.272 543.11 214.586C542.891 212.079 542.923 209.551 543.205 207.001C543.247 203.63 543.217 201.359 543.115 200.19C542.881 197.516 541.846 196.26 540.007 196.421C537.501 196.64 534.407 199.774 530.727 205.821C527.198 211.686 523.83 219.389 520.623 228.93C517.416 238.472 515.005 248.448 513.389 258.861C512.238 266.875 510.533 272.412 508.275 275.472C506.169 278.35 502.526 280.016 497.346 280.47Z" fill="white"/>
<path d="M611.409 270.481C605.059 271.037 600.255 268.09 596.998 261.641C593.907 255.177 591.719 244.592 590.434 229.888C588.535 208.166 589.823 187.26 594.297 167.169C595.377 162.191 597.494 158.47 600.646 156.005C603.95 153.359 608.694 151.765 614.876 151.223C618.218 150.93 620.594 151.143 622.004 151.862C623.414 152.58 624.221 154.109 624.425 156.448C624.659 159.122 623.931 165.247 622.243 174.823C621.156 181.653 620.33 187.619 619.766 192.719C619.201 197.82 618.906 204.075 618.881 211.486C623.139 196.633 628.299 184.395 634.361 174.772C640.424 165.149 646.545 158.131 652.726 153.717C659.074 149.289 665.005 146.833 670.519 146.35C675.866 145.882 680.001 146.951 682.923 149.557C685.997 151.982 687.768 155.868 688.235 161.215C688.615 165.559 688.411 173.827 687.625 186.019C686.845 196.358 686.355 206.166 686.156 215.444C685.942 224.555 686.324 234.708 687.302 245.903C687.857 252.253 686.922 256.965 684.497 260.039C682.224 262.932 678.164 264.635 672.315 265.147C666.801 265.63 662.667 264.561 659.912 261.94C657.157 259.319 655.532 255.168 655.035 249.487C654.451 242.803 654.657 231.672 655.652 216.095C656.489 202.552 656.747 193.943 656.426 190.267C656.192 187.593 655.156 186.337 653.318 186.498C651.146 186.688 648.303 189.799 644.789 195.832C641.428 201.682 638.06 209.386 634.686 218.941C631.479 228.483 629.068 238.459 627.452 248.872C626.3 256.886 624.595 262.423 622.337 265.483C620.232 268.361 616.589 270.027 611.409 270.481Z" fill="white"/>
<path d="M204.097 503.461C184.212 505.203 166.604 503.125 151.271 497.228C135.924 491.163 123.74 481.791 114.718 469.112C105.696 456.432 100.411 441.236 98.8633 423.525C96.7165 398.962 99.4058 376.754 106.931 356.901C114.624 337.033 125.954 321.224 140.923 309.474C155.877 297.557 173.046 290.75 192.429 289.052C210.475 287.472 224.586 290.951 234.761 299.488C244.922 307.859 250.666 319.647 251.995 334.852C252.886 345.045 251.764 353.393 248.628 359.898C245.659 366.387 240.833 369.925 234.149 370.51C229.471 370.92 225.7 370.156 222.836 368.218C219.973 366.28 218.359 363.222 217.993 359.045C217.862 357.541 217.955 354.755 218.273 350.686C218.838 345.585 218.988 341.531 218.726 338.524C217.397 323.318 208.628 316.425 192.42 317.845C181.391 318.81 171.178 323.325 161.78 331.388C152.383 339.451 145.206 350.771 140.25 365.348C135.28 379.758 133.634 396.571 135.314 415.787C137.066 435.838 144.022 450.887 156.181 460.935C168.326 470.815 185.343 474.797 207.233 472.88C218.094 471.929 228.922 469.634 239.717 465.994C250.664 462.173 262.657 456.829 275.695 449.963C278.114 448.741 280.158 448.057 281.829 447.91C284.503 447.676 286.596 448.503 288.108 450.391C289.62 452.279 290.514 454.811 290.792 457.986C291.683 468.178 286.826 476.18 276.221 481.992C264.81 488.211 252.781 493.137 240.133 496.77C227.639 500.221 215.626 502.452 204.097 503.461Z" fill="white"/>
<path d="M292.21 495.745C285.86 496.301 281.057 493.354 277.799 486.905C274.708 480.44 272.52 469.856 271.235 455.152C269.337 433.43 270.624 412.524 275.098 392.432C276.178 387.455 278.295 383.734 281.447 381.269C284.751 378.622 289.495 377.028 295.677 376.487C299.019 376.194 301.395 376.407 302.805 377.126C304.215 377.844 305.022 379.373 305.226 381.712C305.46 384.386 304.733 390.511 303.044 400.087C301.957 406.917 301.131 412.883 300.567 417.983C300.003 423.084 299.707 429.339 299.682 436.75C303.94 421.897 309.1 409.659 315.162 400.036C321.225 390.413 327.346 383.395 333.527 378.981C339.875 374.553 345.806 372.097 351.32 371.614C362.182 370.663 368.087 375.618 369.036 386.479C369.226 388.651 368.934 393.98 368.16 402.466C367.408 409.267 367.105 413.503 367.251 415.174C367.762 421.022 370.106 423.763 374.283 423.398C378.962 422.988 384.656 418.785 391.366 410.789C393.348 408.427 395.509 407.143 397.848 406.938C400.021 406.748 401.779 407.604 403.124 409.507C404.622 411.228 405.509 413.676 405.787 416.85C406.327 423.033 405.079 428.025 402.044 431.826C397.789 437.082 392.64 441.742 386.597 445.807C380.707 449.69 374.252 451.939 367.234 452.554C358.378 453.329 351.414 451.666 346.341 447.565C341.435 443.448 338.646 437.547 337.974 429.861C337.755 427.354 337.787 424.826 338.069 422.276C338.111 418.905 338.081 416.634 337.979 415.464C337.745 412.791 336.709 411.535 334.871 411.696C332.365 411.915 329.271 415.048 325.59 421.095C322.062 426.961 318.694 434.664 315.487 444.205C312.28 453.747 309.869 463.723 308.253 474.135C307.101 482.15 305.396 487.687 303.138 490.747C301.033 493.625 297.39 495.291 292.21 495.745Z" fill="white"/>
<path d="M414.042 485.075C406.523 485.734 400.041 482.85 394.597 476.423C389.304 469.815 386.206 461.331 385.3 450.972C384.205 438.44 384.04 426.921 384.806 416.415C385.556 405.742 387.342 394.389 390.163 382.356C391.396 377.196 393.421 373.399 396.239 370.963C399.057 368.528 403.724 367.025 410.241 366.454C413.917 366.132 416.475 366.497 417.914 367.55C419.52 368.588 420.425 370.277 420.63 372.616C420.747 373.953 420.222 378.545 419.056 386.392C417.925 392.72 417.077 398.435 416.513 403.536C414.705 421.373 414.056 433.216 414.567 439.064C414.874 442.573 415.51 445.043 416.477 446.473C417.43 447.737 418.825 448.288 420.663 448.127C423.169 447.908 426.042 445.131 429.28 439.796C432.685 434.447 436.03 426.493 439.317 415.934C442.771 405.361 445.853 392.464 448.563 377.241C449.462 372.111 451.153 368.343 453.637 365.937C456.288 363.516 460.37 362.064 465.884 361.581C469.727 361.245 472.445 361.512 474.036 362.382C475.613 363.086 476.511 364.691 476.73 367.198C477.095 371.375 476.007 383.004 473.465 402.084C470.656 423.881 469.47 437.287 469.908 442.299C470.186 445.474 471.073 447.922 472.571 449.643C474.054 451.197 475.881 451.879 478.053 451.688C481.395 451.396 485.147 449.047 489.308 444.641C493.621 440.054 499.22 432.829 506.103 422.966C507.904 420.451 510.057 419.084 512.564 418.864C514.736 418.674 516.494 419.53 517.839 421.433C519.351 423.321 520.261 426.02 520.567 429.529C521.152 436.212 520.017 441.531 517.163 445.485C510.752 454.97 503.618 462.919 495.759 469.332C488.068 475.73 478.959 479.39 468.432 480.312C460.411 481.015 454.209 478.443 449.826 472.597C445.609 466.737 443.012 458.209 442.033 447.013C440.186 458.625 436.692 467.77 431.551 474.45C426.395 480.963 420.559 484.505 414.042 485.075Z" fill="white"/>
<path d="M522.048 475.617C515.699 476.173 510.895 473.226 507.637 466.776C504.547 460.312 502.359 449.728 501.074 435.024C499.175 413.302 500.463 392.395 504.937 372.304C506.017 367.327 508.133 363.606 511.285 361.141C514.59 358.494 519.333 356.9 525.516 356.359C528.858 356.066 531.234 356.279 532.643 356.997C534.053 357.716 534.86 359.245 535.065 361.584C535.298 364.257 534.571 370.382 532.882 379.959C531.796 386.789 530.97 392.754 530.406 397.855C529.841 402.956 529.546 409.211 529.52 416.622C533.778 401.769 538.939 389.531 545.001 379.908C551.063 370.285 557.185 363.267 563.366 358.853C569.714 354.424 575.645 351.969 581.159 351.486C592.02 350.535 597.925 355.49 598.875 366.351C599.444 372.867 598.636 384.808 596.449 402.173C594.545 416.989 593.797 426.735 594.206 431.414C594.79 438.098 597.505 441.227 602.351 440.803C605.693 440.51 609.445 438.161 613.606 433.756C617.919 429.169 623.518 421.944 630.401 412.081C632.201 409.566 634.355 408.198 636.861 407.979C639.034 407.789 640.792 408.645 642.137 410.548C643.649 412.436 644.559 415.134 644.865 418.643C645.45 425.327 644.315 430.646 641.461 434.6C635.05 444.085 627.916 452.034 620.057 458.447C612.366 464.845 603.257 468.505 592.73 469.427C584.208 470.173 577.563 468.314 572.795 463.848C568.012 459.216 565.212 452.221 564.394 442.864C563.985 438.186 564.425 429.729 565.713 417.493C566.965 406.776 567.416 399.412 567.065 395.402C566.832 392.729 565.796 391.472 563.958 391.633C561.785 391.824 558.942 394.935 555.429 400.967C552.067 406.818 548.7 414.521 545.326 424.077C542.118 433.618 539.707 443.595 538.092 454.007C536.94 462.021 535.235 467.559 532.977 470.619C530.871 473.497 527.228 475.163 522.048 475.617Z" fill="white"/>
<path d="M676.468 462.093C660.093 463.527 646.909 460.052 636.915 451.667C627.074 443.1 621.489 431.213 620.16 416.008C618.977 402.474 620.614 390.376 625.07 379.715C629.526 369.054 635.774 360.593 643.814 354.333C651.854 348.073 660.553 344.533 669.91 343.713C679.101 342.909 686.443 345.044 691.938 350.119C697.585 355.012 700.781 361.72 701.526 370.241C702.139 377.259 701.07 383.33 698.319 388.454C695.735 393.563 691.936 396.337 686.924 396.776C683.749 397.054 681.093 396.529 678.956 395.2C676.987 393.858 675.885 391.849 675.652 389.176C675.549 388.006 675.6 386.655 675.803 385.122C676.005 383.589 676.161 382.481 676.27 381.798C676.886 379.218 677.099 376.842 676.91 374.67C676.72 372.498 675.989 370.878 674.717 369.811C673.612 368.729 672.057 368.276 670.052 368.452C666.209 368.788 662.77 370.857 659.734 374.659C656.684 378.293 654.413 383.122 652.919 389.146C651.425 395.17 650.984 401.691 651.598 408.709C653.292 428.092 662.577 437.044 679.454 435.566C686.305 434.966 693.46 432.066 700.919 426.867C708.531 421.486 715.778 413.864 722.661 404.001C724.462 401.486 726.616 400.119 729.122 399.899C731.294 399.709 733.053 400.565 734.398 402.468C735.91 404.356 736.819 407.054 737.126 410.563C737.681 416.913 736.546 422.232 733.722 426.52C726.715 436.899 717.932 445.245 707.371 451.558C696.962 457.689 686.661 461.201 676.468 462.093Z" fill="white"/>
<path d="M799.284 332.384C804.631 331.915 808.765 332.984 811.687 335.591C814.761 338.015 816.532 341.901 816.999 347.248C817.379 351.593 817.176 359.861 816.389 372.052C815.609 382.391 815.119 392.2 814.92 401.477C814.706 410.588 815.088 420.741 816.067 431.936C816.622 438.286 815.687 442.998 813.261 446.073C810.989 448.966 806.928 450.668 801.08 451.18C795.565 451.663 791.431 450.594 788.676 447.973C785.922 445.352 784.296 441.201 783.799 435.52C783.215 428.836 783.421 417.706 784.417 402.128C785.254 388.585 785.511 379.976 785.19 376.3C784.956 373.626 783.921 372.37 782.082 372.531C779.91 372.721 777.067 375.833 773.554 381.865C770.025 387.73 766.657 395.433 763.45 404.975C760.243 414.516 757.832 424.493 756.216 434.905C755.065 442.919 753.36 448.456 751.102 451.516C748.996 454.395 745.353 456.061 740.173 456.514C734.993 456.968 730.989 455.467 728.162 452.01C725.486 448.372 723.388 442.663 721.866 434.882C720.344 427.102 718.919 415.609 717.59 400.404C715.341 374.672 715.587 347.627 718.328 319.269C721.236 290.896 726.961 266.823 735.504 247.049C744.199 227.093 755.732 216.486 770.102 215.227C777.788 214.554 784.263 217.355 789.526 223.628C794.941 229.721 798.109 238.03 799.029 248.557C800.504 265.433 797.108 283.41 788.841 302.486C780.56 321.395 766.366 343.937 746.26 370.112C746.518 378.845 747.049 387.806 747.852 396.996C752.125 382.31 757.216 370.247 763.126 360.806C769.188 351.183 775.31 344.164 781.491 339.751C787.838 335.322 793.769 332.866 799.284 332.384ZM767.007 240.501C763.999 240.765 761.037 245.402 758.12 254.413C755.189 263.256 752.611 275.184 750.388 290.195C748.316 305.025 746.947 321.14 746.279 338.541C755.572 325.436 762.933 311.406 768.361 296.45C773.956 281.481 776.242 268.147 775.22 256.451C774.753 251.104 773.81 247.061 772.392 244.323C770.974 241.585 769.179 240.311 767.007 240.501Z" fill="white"/>
<path d="M298.597 297.876C278.713 299.617 261.104 297.539 245.772 291.642C230.425 285.578 218.241 276.206 209.219 263.526C200.197 250.846 194.912 235.651 193.364 217.939C191.217 193.376 193.906 171.168 201.432 151.315C209.124 131.447 220.455 115.638 235.424 103.888C250.378 91.9713 267.546 85.1641 286.929 83.4666C304.976 81.8862 319.086 85.3648 329.262 93.9025C339.422 102.273 345.167 114.061 346.496 129.266C347.387 139.459 346.264 147.808 343.129 154.312C340.16 160.802 335.334 164.339 328.65 164.924C323.971 165.334 320.2 164.57 317.337 162.632C314.473 160.694 312.859 157.636 312.494 153.459C312.363 151.955 312.456 149.169 312.774 145.1C313.338 140 313.489 135.945 313.226 132.938C311.897 117.732 303.128 110.839 286.92 112.259C275.892 113.225 265.679 117.739 256.281 125.802C246.883 133.865 239.706 145.185 234.751 159.762C229.78 174.172 228.135 190.985 229.814 210.201C231.567 230.252 238.523 245.301 250.682 255.349C262.827 265.229 279.844 269.211 301.733 267.294C312.595 266.343 323.423 264.048 334.217 260.408C345.164 256.587 357.157 251.244 370.195 244.377C372.614 243.155 374.659 242.471 376.33 242.325C379.004 242.091 381.096 242.917 382.608 244.806C384.12 246.694 385.015 249.225 385.293 252.4C386.183 262.592 381.326 270.594 370.722 276.406C359.311 282.625 347.281 287.551 334.634 291.184C322.139 294.635 310.127 296.866 298.597 297.876Z" stroke="#FEC526" stroke-width="26" mask="url(#path-1-outside-1_870_303)"/>
<path d="M487.461 202.538C489.633 202.348 491.399 203.288 492.758 205.357C494.118 207.427 494.944 210.133 495.236 213.475C495.937 221.495 493.93 226.47 489.216 228.398C479.497 232.785 468.644 235.756 456.656 237.311C454.708 251.624 449.428 263.452 440.815 272.793C432.188 281.967 421.943 287.074 410.079 288.113C400.053 288.991 391.236 287.321 383.627 283.105C376.186 278.874 370.277 272.909 365.899 265.211C361.522 257.512 358.925 248.984 358.107 239.627C356.997 226.928 358.434 215.437 362.418 205.154C366.388 194.704 372.393 186.349 380.433 180.089C388.458 173.662 397.651 169.994 408.01 169.087C420.71 167.975 431.29 171.51 439.75 179.693C448.363 187.694 453.9 198.069 456.361 210.818C464.171 209.629 473.382 207.138 483.995 203.347C485.303 202.895 486.458 202.626 487.461 202.538ZM409.762 261.369C415.109 260.901 419.514 258.326 422.978 253.645C426.609 248.95 428.734 242.45 429.356 234.145C423.869 231.09 419.457 226.846 416.12 221.414C412.95 215.967 411.087 210.068 410.532 203.719C410.299 201.045 410.316 198.35 410.583 195.633L409.33 195.742C402.646 196.328 397.333 200.076 393.391 206.988C389.602 213.718 388.218 222.931 389.24 234.628C390.044 243.818 392.411 250.682 396.344 255.22C400.444 259.744 404.916 261.794 409.762 261.369Z" stroke="#FEC526" stroke-width="26" mask="url(#path-1-outside-1_870_303)"/>
<path d="M497.346 280.47C490.997 281.026 486.193 278.079 482.935 271.63C479.845 265.166 477.657 254.582 476.371 239.877C474.473 218.155 475.761 197.249 480.234 177.158C481.315 172.18 483.431 168.459 486.583 165.994C489.888 163.348 494.631 161.754 500.814 161.212C504.156 160.92 506.531 161.132 507.941 161.851C509.351 162.569 510.158 164.098 510.363 166.437C510.596 169.111 509.869 175.236 508.18 184.813C507.093 191.643 506.268 197.608 505.703 202.708C505.139 207.809 504.844 214.065 504.818 221.475C509.076 206.622 514.236 194.384 520.299 184.761C526.361 175.139 532.483 168.12 538.664 163.706C545.011 159.278 550.943 156.822 556.457 156.339C567.318 155.388 573.223 160.343 574.172 171.204C574.362 173.376 574.07 178.705 573.297 187.192C572.544 193.993 572.241 198.228 572.387 199.899C572.898 205.748 575.242 208.489 579.42 208.123C584.098 207.713 589.793 203.51 596.502 195.514C598.485 193.152 600.645 191.868 602.985 191.663C605.157 191.473 606.916 192.329 608.261 194.232C609.758 195.953 610.645 198.401 610.923 201.576C611.463 207.758 610.216 212.75 607.181 216.552C602.925 221.807 597.776 226.467 591.733 230.532C585.843 234.416 579.389 236.664 572.371 237.279C563.515 238.055 556.55 236.392 551.477 232.29C546.571 228.173 543.782 222.272 543.11 214.586C542.891 212.079 542.923 209.551 543.205 207.001C543.247 203.63 543.217 201.359 543.115 200.19C542.881 197.516 541.846 196.26 540.007 196.421C537.501 196.64 534.407 199.774 530.727 205.821C527.198 211.686 523.83 219.389 520.623 228.93C517.416 238.472 515.005 248.448 513.389 258.861C512.238 266.875 510.533 272.412 508.275 275.472C506.169 278.35 502.526 280.016 497.346 280.47Z" stroke="#FEC526" stroke-width="26" mask="url(#path-1-outside-1_870_303)"/>
<path d="M611.409 270.481C605.059 271.037 600.255 268.09 596.998 261.641C593.907 255.177 591.719 244.592 590.434 229.888C588.535 208.166 589.823 187.26 594.297 167.169C595.377 162.191 597.494 158.47 600.646 156.005C603.95 153.359 608.694 151.765 614.876 151.223C618.218 150.93 620.594 151.143 622.004 151.862C623.414 152.58 624.221 154.109 624.425 156.448C624.659 159.122 623.931 165.247 622.243 174.823C621.156 181.653 620.33 187.619 619.766 192.719C619.201 197.82 618.906 204.075 618.881 211.486C623.139 196.633 628.299 184.395 634.361 174.772C640.424 165.149 646.545 158.131 652.726 153.717C659.074 149.289 665.005 146.833 670.519 146.35C675.866 145.882 680.001 146.951 682.923 149.557C685.997 151.982 687.768 155.868 688.235 161.215C688.615 165.559 688.411 173.827 687.625 186.019C686.845 196.358 686.355 206.166 686.156 215.444C685.942 224.555 686.324 234.708 687.302 245.903C687.857 252.253 686.922 256.965 684.497 260.039C682.224 262.932 678.164 264.635 672.315 265.147C666.801 265.63 662.667 264.561 659.912 261.94C657.157 259.319 655.532 255.168 655.035 249.487C654.451 242.803 654.657 231.672 655.652 216.095C656.489 202.552 656.747 193.943 656.426 190.267C656.192 187.593 655.156 186.337 653.318 186.498C651.146 186.688 648.303 189.799 644.789 195.832C641.428 201.682 638.06 209.386 634.686 218.941C631.479 228.483 629.068 238.459 627.452 248.872C626.3 256.886 624.595 262.423 622.337 265.483C620.232 268.361 616.589 270.027 611.409 270.481Z" stroke="#FEC526" stroke-width="26" mask="url(#path-1-outside-1_870_303)"/>
<path d="M204.097 503.461C184.212 505.203 166.604 503.125 151.271 497.228C135.924 491.163 123.74 481.791 114.718 469.112C105.696 456.432 100.411 441.236 98.8633 423.525C96.7165 398.962 99.4058 376.754 106.931 356.901C114.624 337.033 125.954 321.224 140.923 309.474C155.877 297.557 173.046 290.75 192.429 289.052C210.475 287.472 224.586 290.951 234.761 299.488C244.922 307.859 250.666 319.647 251.995 334.852C252.886 345.045 251.764 353.393 248.628 359.898C245.659 366.387 240.833 369.925 234.149 370.51C229.471 370.92 225.7 370.156 222.836 368.218C219.973 366.28 218.359 363.222 217.993 359.045C217.862 357.541 217.955 354.755 218.273 350.686C218.838 345.585 218.988 341.531 218.726 338.524C217.397 323.318 208.628 316.425 192.42 317.845C181.391 318.81 171.178 323.325 161.78 331.388C152.383 339.451 145.206 350.771 140.25 365.348C135.28 379.758 133.634 396.571 135.314 415.787C137.066 435.838 144.022 450.887 156.181 460.935C168.326 470.815 185.343 474.797 207.233 472.88C218.094 471.929 228.922 469.634 239.717 465.994C250.664 462.173 262.657 456.829 275.695 449.963C278.114 448.741 280.158 448.057 281.829 447.91C284.503 447.676 286.596 448.503 288.108 450.391C289.62 452.279 290.514 454.811 290.792 457.986C291.683 468.178 286.826 476.18 276.221 481.992C264.81 488.211 252.781 493.137 240.133 496.77C227.639 500.221 215.626 502.452 204.097 503.461Z" stroke="#FEC526" stroke-width="26" mask="url(#path-1-outside-1_870_303)"/>
<path d="M292.21 495.745C285.86 496.301 281.057 493.354 277.799 486.905C274.708 480.44 272.52 469.856 271.235 455.152C269.337 433.43 270.624 412.524 275.098 392.432C276.178 387.455 278.295 383.734 281.447 381.269C284.751 378.622 289.495 377.028 295.677 376.487C299.019 376.194 301.395 376.407 302.805 377.126C304.215 377.844 305.022 379.373 305.226 381.712C305.46 384.386 304.733 390.511 303.044 400.087C301.957 406.917 301.131 412.883 300.567 417.983C300.003 423.084 299.707 429.339 299.682 436.75C303.94 421.897 309.1 409.659 315.162 400.036C321.225 390.413 327.346 383.395 333.527 378.981C339.875 374.553 345.806 372.097 351.32 371.614C362.182 370.663 368.087 375.618 369.036 386.479C369.226 388.651 368.934 393.98 368.16 402.466C367.408 409.267 367.105 413.503 367.251 415.174C367.762 421.022 370.106 423.763 374.283 423.398C378.962 422.988 384.656 418.785 391.366 410.789C393.348 408.427 395.509 407.143 397.848 406.938C400.021 406.748 401.779 407.604 403.124 409.507C404.622 411.228 405.509 413.676 405.787 416.85C406.327 423.033 405.079 428.025 402.044 431.826C397.789 437.082 392.64 441.742 386.597 445.807C380.707 449.69 374.252 451.939 367.234 452.554C358.378 453.329 351.414 451.666 346.341 447.565C341.435 443.448 338.646 437.547 337.974 429.861C337.755 427.354 337.787 424.826 338.069 422.276C338.111 418.905 338.081 416.634 337.979 415.464C337.745 412.791 336.709 411.535 334.871 411.696C332.365 411.915 329.271 415.048 325.59 421.095C322.062 426.961 318.694 434.664 315.487 444.205C312.28 453.747 309.869 463.723 308.253 474.135C307.101 482.15 305.396 487.687 303.138 490.747C301.033 493.625 297.39 495.291 292.21 495.745Z" stroke="#FEC526" stroke-width="26" mask="url(#path-1-outside-1_870_303)"/>
<path d="M414.042 485.075C406.523 485.734 400.041 482.85 394.597 476.423C389.304 469.815 386.206 461.331 385.3 450.972C384.205 438.44 384.04 426.921 384.806 416.415C385.556 405.742 387.342 394.389 390.163 382.356C391.396 377.196 393.421 373.399 396.239 370.963C399.057 368.528 403.724 367.025 410.241 366.454C413.917 366.132 416.475 366.497 417.914 367.55C419.52 368.588 420.425 370.277 420.63 372.616C420.747 373.953 420.222 378.545 419.056 386.392C417.925 392.72 417.077 398.435 416.513 403.536C414.705 421.373 414.056 433.216 414.567 439.064C414.874 442.573 415.51 445.043 416.477 446.473C417.43 447.737 418.825 448.288 420.663 448.127C423.169 447.908 426.042 445.131 429.28 439.796C432.685 434.447 436.03 426.493 439.317 415.934C442.771 405.361 445.853 392.464 448.563 377.241C449.462 372.111 451.153 368.343 453.637 365.937C456.288 363.516 460.37 362.064 465.884 361.581C469.727 361.245 472.445 361.512 474.036 362.382C475.613 363.086 476.511 364.691 476.73 367.198C477.095 371.375 476.007 383.004 473.465 402.084C470.656 423.881 469.47 437.287 469.908 442.299C470.186 445.474 471.073 447.922 472.571 449.643C474.054 451.197 475.881 451.879 478.053 451.688C481.395 451.396 485.147 449.047 489.308 444.641C493.621 440.054 499.22 432.829 506.103 422.966C507.904 420.451 510.057 419.084 512.564 418.864C514.736 418.674 516.494 419.53 517.839 421.433C519.351 423.321 520.261 426.02 520.567 429.529C521.152 436.212 520.017 441.531 517.163 445.485C510.752 454.97 503.618 462.919 495.759 469.332C488.068 475.73 478.959 479.39 468.432 480.312C460.411 481.015 454.209 478.443 449.826 472.597C445.609 466.737 443.012 458.209 442.033 447.013C440.186 458.625 436.692 467.77 431.551 474.45C426.395 480.963 420.559 484.505 414.042 485.075Z" stroke="#FEC526" stroke-width="26" mask="url(#path-1-outside-1_870_303)"/>
<path d="M522.048 475.617C515.699 476.173 510.895 473.226 507.637 466.776C504.547 460.312 502.359 449.728 501.074 435.024C499.175 413.302 500.463 392.395 504.937 372.304C506.017 367.327 508.133 363.606 511.285 361.141C514.59 358.494 519.333 356.9 525.516 356.359C528.858 356.066 531.234 356.279 532.643 356.997C534.053 357.716 534.86 359.245 535.065 361.584C535.298 364.257 534.571 370.382 532.882 379.959C531.796 386.789 530.97 392.754 530.406 397.855C529.841 402.956 529.546 409.211 529.52 416.622C533.778 401.769 538.939 389.531 545.001 379.908C551.063 370.285 557.185 363.267 563.366 358.853C569.714 354.424 575.645 351.969 581.159 351.486C592.02 350.535 597.925 355.49 598.875 366.351C599.444 372.867 598.636 384.808 596.449 402.173C594.545 416.989 593.797 426.735 594.206 431.414C594.79 438.098 597.505 441.227 602.351 440.803C605.693 440.51 609.445 438.161 613.606 433.756C617.919 429.169 623.518 421.944 630.401 412.081C632.201 409.566 634.355 408.198 636.861 407.979C639.034 407.789 640.792 408.645 642.137 410.548C643.649 412.436 644.559 415.134 644.865 418.643C645.45 425.327 644.315 430.646 641.461 434.6C635.05 444.085 627.916 452.034 620.057 458.447C612.366 464.845 603.257 468.505 592.73 469.427C584.208 470.173 577.563 468.314 572.795 463.848C568.012 459.216 565.212 452.221 564.394 442.864C563.985 438.186 564.425 429.729 565.713 417.493C566.965 406.776 567.416 399.412 567.065 395.402C566.832 392.729 565.796 391.472 563.958 391.633C561.785 391.824 558.942 394.935 555.429 400.967C552.067 406.818 548.7 414.521 545.326 424.077C542.118 433.618 539.707 443.595 538.092 454.007C536.94 462.021 535.235 467.559 532.977 470.619C530.871 473.497 527.228 475.163 522.048 475.617Z" stroke="#FEC526" stroke-width="26" mask="url(#path-1-outside-1_870_303)"/>
<path d="M676.468 462.093C660.093 463.527 646.909 460.052 636.915 451.667C627.074 443.1 621.489 431.213 620.16 416.008C618.977 402.474 620.614 390.376 625.07 379.715C629.526 369.054 635.774 360.593 643.814 354.333C651.854 348.073 660.553 344.533 669.91 343.713C679.101 342.909 686.443 345.044 691.938 350.119C697.585 355.012 700.781 361.72 701.526 370.241C702.139 377.259 701.07 383.33 698.319 388.454C695.735 393.563 691.936 396.337 686.924 396.776C683.749 397.054 681.093 396.529 678.956 395.2C676.987 393.858 675.885 391.849 675.652 389.176C675.549 388.006 675.6 386.655 675.803 385.122C676.005 383.589 676.161 382.481 676.27 381.798C676.886 379.218 677.099 376.842 676.91 374.67C676.72 372.498 675.989 370.878 674.717 369.811C673.612 368.729 672.057 368.276 670.052 368.452C666.209 368.788 662.77 370.857 659.734 374.659C656.684 378.293 654.413 383.122 652.919 389.146C651.425 395.17 650.984 401.691 651.598 408.709C653.292 428.092 662.577 437.044 679.454 435.566C686.305 434.966 693.46 432.066 700.919 426.867C708.531 421.486 715.778 413.864 722.661 404.001C724.462 401.486 726.616 400.119 729.122 399.899C731.294 399.709 733.053 400.565 734.398 402.468C735.91 404.356 736.819 407.054 737.126 410.563C737.681 416.913 736.546 422.232 733.722 426.52C726.715 436.899 717.932 445.245 707.371 451.558C696.962 457.689 686.661 461.201 676.468 462.093Z" stroke="#FEC526" stroke-width="26" mask="url(#path-1-outside-1_870_303)"/>
<path d="M799.284 332.384C804.631 331.915 808.765 332.984 811.687 335.591C814.761 338.015 816.532 341.901 816.999 347.248C817.379 351.593 817.176 359.861 816.389 372.052C815.609 382.391 815.119 392.2 814.92 401.477C814.706 410.588 815.088 420.741 816.067 431.936C816.622 438.286 815.687 442.998 813.261 446.073C810.989 448.966 806.928 450.668 801.08 451.18C795.565 451.663 791.431 450.594 788.676 447.973C785.922 445.352 784.296 441.201 783.799 435.52C783.215 428.836 783.421 417.706 784.417 402.128C785.254 388.585 785.511 379.976 785.19 376.3C784.956 373.626 783.921 372.37 782.082 372.531C779.91 372.721 777.067 375.833 773.554 381.865C770.025 387.73 766.657 395.433 763.45 404.975C760.243 414.516 757.832 424.493 756.216 434.905C755.065 442.919 753.36 448.456 751.102 451.516C748.996 454.395 745.353 456.061 740.173 456.514C734.993 456.968 730.989 455.467 728.162 452.01C725.486 448.372 723.388 442.663 721.866 434.882C720.344 427.102 718.919 415.609 717.59 400.404C715.341 374.672 715.587 347.627 718.328 319.269C721.236 290.896 726.961 266.823 735.504 247.049C744.199 227.093 755.732 216.486 770.102 215.227C777.788 214.554 784.263 217.355 789.526 223.628C794.941 229.721 798.109 238.03 799.029 248.557C800.504 265.433 797.108 283.41 788.841 302.486C780.56 321.395 766.366 343.937 746.26 370.112C746.518 378.845 747.049 387.806 747.852 396.996C752.125 382.31 757.216 370.247 763.126 360.806C769.188 351.183 775.31 344.164 781.491 339.751C787.838 335.322 793.769 332.866 799.284 332.384ZM767.007 240.501C763.999 240.765 761.037 245.402 758.12 254.413C755.189 263.256 752.611 275.184 750.388 290.195C748.316 305.025 746.947 321.14 746.279 338.541C755.572 325.436 762.933 311.406 768.361 296.45C773.956 281.481 776.242 268.147 775.22 256.451C774.753 251.104 773.81 247.061 772.392 244.323C770.974 241.585 769.179 240.311 767.007 240.501Z" stroke="#FEC526" stroke-width="26" mask="url(#path-1-outside-1_870_303)"/>
<path d="M711.802 55.0224L714.312 53.3311L717.207 51.8813L719.417 51.1801L720.779 50.8038L723.282 50.2332L725.139 50.0073L730.157 49.785L731.974 49.963L733.499 50.0104L735.832 50.1368L736.418 50.3982L736.639 50.216L739.265 50.4731L741.265 50.8729L742.972 51.142L745.265 51.6724L747.467 52.0919L750.053 52.753L752.033 53.3548L753.922 53.8456L756.892 54.7482L759.055 55.5717L760.742 56.0428L762.409 56.7159L764.481 57.4285L767.229 58.5133L769.098 59.2061L770.766 59.8792L772.029 60.5127L774.484 61.4668L777.213 62.7536L778.972 63.5375L783.257 65.5884L784.52 66.2219L786.168 67.097L788.401 68.2333L790.837 69.3894L792.374 70.3556L793.546 70.8782L795.851 72.3274L796.548 72.4976L799.126 74.2794L800.409 74.7109L803.463 76.8452L803.958 76.9956L804.31 76.5203L804.69 74.7224L805.051 73.1263L805.391 71.7323L807.196 65.7918L807.869 64.1245L807.909 63.7205L808.634 62.568L809.065 61.2849L809.75 60.5363L809.96 59.4354L811.5 57.2412L811.579 56.4333L814.066 52.9045L815.012 51.5698L816.01 50.75L817.372 50.3736L818.988 50.5318L820.271 50.9634L821.131 51.5573L822.386 53.3115L822.866 55.7034L823.71 58.5389L826.38 65.6313L828.427 69.7062L829.35 71.7337L831.529 75.5155L832.654 77.5628L833.291 78.3389L834.234 80.1645L835.854 82.3622L837.435 84.9639L838.963 87.0508L839.724 88.6546L840.017 88.7852L841.292 90.3375L844.441 94.6221L847.245 98.2612L847.721 98.6136L847.701 98.8156L848.339 99.5918L848.834 99.7422L848.885 100.257L849.432 100.922L849.927 101.073L850.069 101.698L850.525 102.253L851.111 102.514L851.527 103.472L852.022 103.623L852.711 104.914L853.499 105.195L853.935 105.951L853.713 106.133L855.159 106.989L855.484 107.836L856.343 108.43L856.747 108.47L857.619 109.982L858.316 110.153L858.751 110.909L858.731 111.111L859.187 111.665L859.975 111.946L860.522 112.612L860.3 112.794L861.25 113.499L862.019 113.982L861.979 114.386L862.526 115.051L863.496 115.554L864.185 116.845L864.589 116.884L865.247 117.458L865.48 118.195L866.542 118.809L867.049 119.878L868.403 120.622L868.728 121.47L869.295 121.933L869.496 121.953L870.134 122.729L870.297 123.153L871.156 123.747L871.774 124.725L872.34 125.188L872.867 126.055L873.525 126.629L875.762 129.805L877.434 132.518L878.468 134.454L879.624 137.218L880.67 140.074L881.467 144.434L881.51 146.069L881.566 148.624L881.344 148.806L882.477 149.732L890.667 155.632L891.416 156.317L891.761 156.963L892.913 157.687L893.551 158.463L893.713 158.887L894.664 159.592L896.458 163.132L897.132 166.665L897.338 168.724L897.116 168.906L897.298 169.128L896.899 171.128L896.427 172.815L895.996 174.098L895.141 175.544L892.785 178.779L891.244 180.973L887.831 185.635L886.996 186.879L883.099 192.308L882.375 193.461L880.039 196.495L879.667 197.172L878.388 198.78L877.631 199.216L877.501 199.509L876.633 200.036L875.544 200.745L873.295 201.85L869.763 202.523L867.814 202.638L865.299 202.29L863.905 201.95L862.935 201.447L861.945 201.146L860.317 200.069L859.711 200.01L854.373 196.224L850.277 193.274L849.802 192.922L848.713 193.631L847.462 193.916L846.191 194.403L841.628 195.18L838.983 195.125L836.852 195.018L835.328 194.971L832.924 194.532L831.53 194.191L829.732 193.811L825.973 192.627L824.599 192.085L822.437 191.262L820.971 190.608L819.708 189.975L818.627 189.563L817.181 188.708L816.191 188.407L815.221 187.904L814.14 187.492L813.078 186.879L812.472 186.819L811.229 185.984L809.946 185.552L809.086 184.958L808.096 184.657L806.853 183.822L806.247 183.763L804.892 183.018L804.306 182.757L803.993 182.828L802.365 181.751L802.183 181.53L801.76 181.692L800.516 180.857L799.415 180.647L798.262 179.922L797.272 179.621L795.221 178.707L792.655 177.844L791.977 177.471L790.694 177.04L789.815 176.648L786.552 175.615L784.389 174.791L782.5 174.3L780.429 173.588L779.055 173.045L776.873 172.424L774.58 171.893L772.69 171.403L771.205 170.951L769.609 170.591L767.518 170.08L765.518 169.681L763.408 169.372L761.72 168.901L759.61 168.592L758.105 168.343L754.671 168.007L753.166 167.757L751.238 167.67L750.723 167.722L750.541 167.5L750.117 167.663L749.016 167.453L746.664 167.528L744.826 167.552L743.08 167.687L742.161 167.699L740.505 167.945L739.203 167.715L737.737 167.062L736.806 166.155L735.955 164.44L735.78 163.098L736.232 161.613L738.477 158.468L739.292 157.427L739.423 157.133L740.088 156.587L740.734 156.242L740.995 155.656L741.7 154.706L742.163 154.139L743.122 153.723L743.755 152.46L744.29 152.206L745.066 151.569L745.438 150.892L746.396 150.476L746.638 150.091L748.079 148.907L751.588 146.396L753.544 145.16L756.902 143.144L756.264 142.368L753.504 140.364L753.029 140.012L752.795 139.275L750.217 137.494L749.761 136.939L749.416 136.294L747.496 135.086L746.604 133.775L744.684 132.568L743.792 131.257L742.64 130.532L741.84 129.333L740.778 128.719L739.796 127.297L738.735 126.683L738.228 125.614L736.964 124.981L736.64 124.133L735.982 123.559L735.487 123.409L735.234 122.874L734.798 122.118L733.919 121.726L733.685 120.989L733.229 120.435L732.825 120.395L732.188 119.619L731.843 118.974L731.348 118.823L731.003 118.178L730.75 117.643L729.962 117.362L729.273 116.071L728.778 115.921L727.978 114.721L727.32 114.147L726.884 113.39L726.207 113.018L726.064 112.392L725.498 111.929L725.114 111.688L724.496 110.71L723.696 109.51L723.13 109.046L721.419 106.738L720.983 105.981L720.325 105.407L718.888 103.431L718.381 102.362L717.47 101.253L715.687 98.6318L714.107 96.0301L712.891 93.8719L712.182 92.783L710.134 88.7081L708.866 86.0351L707.08 81.3741L706.398 78.9624L705.646 76.2379L705.206 73.442L705.202 71.4025L705.047 69.8581L705.193 67.3235L705.593 65.3236L705.783 64.4246L706.234 62.9394L706.626 62.0602L707.501 60.4127L708.559 58.9869L708.82 58.4008L709.838 57.3789L710.119 56.5908L711.227 55.6798L711.762 55.4263L711.802 55.0224ZM723.382 59.6229L724.059 59.9951L726.15 60.5057L728.716 61.3688L730.293 61.931L732.253 62.7347L732.95 62.9049L734.122 63.4275L735.203 63.8392L735.667 63.2729L738.023 60.0371L738.082 59.4312L736.153 59.3443L734.648 59.095L733.235 58.9565L731.71 58.9092L729.266 58.8738L727.207 59.0799L726.086 59.0721L723.916 59.3694L723.382 59.6229ZM714.29 72.2926L714.516 74.1499L714.873 75.7142L715.34 77.1873L715.879 78.9733L717.341 82.7868L718.446 85.0361L718.68 85.7727L719.044 86.2162L719.951 85.2854L721.955 82.525L722.014 81.919L720.739 80.3668L720.263 80.0144L720.192 79.7015L719.645 79.0363L719.079 78.573L718.643 77.8166L717.986 77.2425L717.55 76.4861L714.401 72.2015L714.29 72.2926ZM723.26 69.1947L723.24 69.3967L724.587 71.2618L726.044 73.0358L727.3 74.7901L728.337 73.5663L729.989 71.281L729.513 70.9286L727.533 70.3269L726.361 69.8043L724.876 69.353L723.593 68.9215L723.26 69.1947ZM747.527 61.8855L743.742 67.2243L743.904 67.648L745.532 68.725L746.431 68.915L747.968 69.8812L748.958 70.182L750.586 71.259L751.485 71.449L752.819 72.3954L753.718 72.5854L754.78 73.1991L755.465 72.4505L760.307 65.686L760.236 65.3731L759.044 65.0525L757.579 64.3992L755.892 63.9281L754.608 63.4966L753.729 63.1046L752.426 62.8751L748.87 61.7111L747.971 61.5211L747.527 61.8855ZM738.195 74.9394L734.651 79.894L733.463 81.6129L733.534 81.9257L734.98 82.781L735.78 83.9808L736.932 84.7054L737.277 85.3509L737.439 85.7746L738.885 86.6299L739.431 87.2951L739.776 87.9406L740.746 88.4435L741.638 89.7542L742.497 90.3481L743.182 89.5996L748.377 82.3597L749.454 80.732L749.109 80.0865L748.23 79.6945L747.533 79.5243L746.199 78.578L745.3 78.388L743.379 77.1803L742.773 77.121L740.852 75.9133L740.246 75.854L738.527 74.6661L738.195 74.9394ZM727.915 89.328L724.019 94.7578L725.71 97.2684L727.057 99.1335L727.564 100.203L728.332 100.686L728.586 101.22L730.115 103.307L731.846 105.414L732.903 103.988L735.742 99.9841L737.282 97.7899L737.211 97.4771L736.169 96.6614L736.098 96.3485L735.167 95.4417L734.874 95.3111L734.328 94.6458L733.892 93.8895L732.446 93.0342L731.555 91.7235L730.969 91.4622L730.24 90.5752L729.987 90.0406L729.401 89.7793L728.561 88.9834L727.915 89.328ZM768.624 69.2532L764.486 75.0673L762.835 77.3525L763.584 78.0375L766.071 79.7085L766.97 79.8984L770.115 82.1436L770.923 82.2227L773.501 84.0045L774.91 82.1034L779.753 75.3389L780.478 74.1864L779.8 73.8142L779.194 73.7548L777.951 72.9194L777.345 72.86L776.01 71.9137L775.111 71.7237L773.464 70.8487L772.767 70.6784L771.614 69.9539L771.191 70.1163L769.289 68.7066L768.624 69.2532ZM757.399 84.9765L750.553 94.5015L749.123 96.6045L750.165 97.4202L752.268 98.8497L752.775 99.9189L753.836 100.533L755.262 101.59L756.011 102.275L756.446 103.031L758.074 104.108L758.64 104.571L759.436 103.732L766.524 93.8226L768.064 91.6285L768.124 91.0226L766.587 90.0564L765.727 89.4625L765.122 89.4032L762.25 87.4907L761.684 87.0274L761.078 86.9681L759.45 85.8911L757.731 84.7032L757.399 84.9765ZM743.706 104.027L741.22 107.555L737.676 112.51L737.747 112.823L739.375 113.9L739.882 114.969L740.761 115.361L741.652 116.672L742.238 116.933L743.13 118.244L744.282 118.968L744.516 119.705L744.991 120.057L745.284 120.188L745.922 120.964L746.358 121.721L747.154 120.881L752.942 112.782L753.536 111.922L752.697 111.126L751.16 110.16L750.744 109.202L747.782 107.178L746.982 105.979L744.221 103.975L743.928 103.844L743.706 104.027ZM788.181 78.815L781.929 87.4806L781.315 88.5421L782.356 89.3577L786.361 92.1968L787.553 92.5174L791.648 95.4673L791.941 95.598L792.737 94.7584L799.12 85.7997L799.714 84.9402L799.642 84.6274L798.763 84.2354L798.157 84.1761L795.397 82.1725L794.498 81.9825L791.444 79.8483L790.252 79.5276L788.735 78.3595L788.181 78.815ZM775.898 95.9641L769.757 104.539L766.102 109.584L765.599 110.555L769.219 113.152L770.261 113.968L770.241 114.17L771.172 115.077L775.651 118.268L776.075 118.106L779.155 113.717L785.649 104.668L786.726 103.04L785.886 102.244L781.407 99.0524L780.599 98.9733L776.979 96.3758L776.12 95.7819L775.898 95.9641ZM816.729 66.3175L815.794 68.5709L814.951 70.9353L814.029 74.1075L813.688 75.5015L813.288 77.5015L812.94 80.0163L812.75 80.9153L812.703 82.4399L812.517 85.3784L812.47 86.9031L812.573 87.9328L812.565 89.0535L812.609 90.6891L812.763 92.2335L813.112 94.9185L813.033 95.7264L813.714 98.1381L814.439 102.185L815.679 106.181L816.595 109.329L818.888 115.06L819.974 117.511L821.748 121.253L824.759 126.951L826.339 129.553L827.068 130.44L827.919 132.155L829.448 134.242L830.775 136.309L832.649 139.041L833.306 139.615L836.364 143.789L837.112 144.474L837.457 145.12L838.205 145.805L838.459 146.339L839.097 147.115L839.584 148.386L839.628 150.022L839.327 151.012L838.27 152.438L837.493 153.076L835.909 153.634L834.385 153.587L832.607 153.005L831.434 152.482L829.363 151.77L826.797 150.907L825.018 150.325L823.644 149.782L821.664 149.18L819.977 148.709L818.381 148.349L813.502 147.158L811.502 146.758L810.108 146.417L808.199 146.129L806.199 145.729L802.876 145.301L801.958 145.313L800.453 145.064L798.544 144.775L796.413 144.669L794.889 144.621L793.879 144.522L791.748 144.416L789.396 144.491L787.558 144.515L785.812 144.65L784.176 144.694L780.038 145.308L778.493 145.462L777.171 145.435L775.991 146.033L774.335 146.279L772.145 146.778L770.672 147.245L768.886 147.784L765.183 149.155L763.691 149.824L760.796 151.274L759.081 152.126L758.194 152.854L756.792 153.635L753.153 156.439L752.71 156.803L750.714 158.443L751.189 158.796L753.027 158.772L756.864 159.147L758.187 159.175L760.187 159.575L761.783 159.935L764.389 160.394L766.701 160.722L768.206 160.972L770.994 161.653L772.297 161.882L774.186 162.373L775.874 162.844L778.955 163.656L784.693 165.441L787.462 166.324L789.331 167.017L791.604 167.749L793.473 168.442L796.131 169.416L797.707 169.978L799.465 170.762L800.729 171.396L802.012 171.827L803.77 172.611L805.913 173.636L806.883 174.139L809.228 175.185L810.875 176.06L812.25 176.602L813.22 177.105L816.444 178.542L817.505 179.156L820.345 180.351L821.699 181.096L824.044 182.141L827.58 183.507L829.248 184.18L832.218 185.083L834.602 185.724L837.117 186.072L839.045 186.159L840.994 186.044L844.415 185.461L848.34 183.909L850.296 182.673L852.494 181.053L852.917 180.89L853.179 180.304L854.49 179.413L854.751 178.827L856.062 177.936L856.786 176.783L857.451 176.237L858.097 175.892L858.358 175.306L859.415 173.88L860.603 172.161L861.269 171.615L861.914 171.27L862.639 170.118L864.884 166.973L864.63 166.438L865.557 165.306L867.671 162.454L867.881 161.353L868.827 160.018L869.037 158.917L869.853 157.876L870.173 156.684L870.696 155.512L871.9 151.551L872.371 149.864L872.477 147.733L872.453 145.896L871.871 142.474L871.17 140.265L870.084 137.813L869.304 136.412L866.428 132.46L865.811 131.481L865.062 130.796L864.717 130.151L864.131 129.89L863.624 128.82L863.038 128.559L862.693 127.914L862.531 127.49L861.561 126.987L860.761 125.787L859.517 124.952L859.283 124.215L858.717 123.752L858.222 123.601L857.533 122.31L856.562 121.808L855.58 120.386L855.085 120.236L854.103 118.814L853.608 118.664L852.534 117.131L851.655 116.739L851.2 116.185L851.219 115.983L850.673 115.317L850.178 115.167L849.196 113.745L848.225 113.243L847.536 111.952L847.132 111.912L846.384 111.227L846.403 111.025L845.857 110.36L845.088 109.877L845.31 109.695L844.764 109.029L844.086 108.657L843.377 107.568L842.7 107.196L842.557 106.57L841.9 105.996L841.516 105.755L841.464 105.24L840.807 104.666L840.423 104.424L839.896 103.557L839.005 102.246L838.529 101.894L836.818 99.5851L836.292 98.7178L835.725 98.2546L833.305 94.857L830.247 90.6832L829.467 89.2814L828.829 88.5052L828.576 87.9706L828.101 87.6182L827.685 86.6599L826.865 85.662L826.013 83.9473L824.777 81.9911L821.422 75.6472L820.785 74.8711L819.426 72.0872L817.346 67.2956L817.204 66.6699L816.729 66.3175ZM759.961 118.159L755.47 124.448L753.336 127.502L753.095 127.886L753.752 128.46L754.429 128.832L755.158 129.719L755.32 130.143L756.473 130.868L758.283 132.166L759.083 133.366L760.327 134.202L761.479 134.926L762.553 136.459L763.44 135.73L767.225 130.391L770.416 125.912L770.547 125.619L769.414 124.692L766.361 122.558L765.561 121.358L762.032 118.871L760.515 117.703L759.961 118.159ZM803.378 94.3731L799.723 99.4188L799.24 100.187L799.989 100.872L805.125 104.638L805.803 105.01L806.044 104.626L805.414 102.729L804.709 98.4797L804.075 94.5433L803.821 94.0087L803.378 94.3731ZM793.693 107.902L785.548 119.237L782.709 123.241L782.649 123.847L786.178 126.334L789.798 128.931L790.475 129.304L790.729 129.838L790.891 130.262L794.42 132.749L795.105 132L797.592 128.471L805.032 118.087L806.33 116.277L806.279 115.762L803.134 113.517L801.942 113.196L797.847 110.246L794.136 107.538L793.693 107.902ZM776.92 131.341L774.081 135.345L772.671 137.246L773.681 137.345L775.447 137.008L778.354 136.477L782.179 135.934L783.704 135.981L783.945 135.597L779.466 132.406L777.565 130.996L776.92 131.341ZM812.291 123.08L809.805 126.609L803.663 135.183L802.959 136.134L803.545 136.395L805.16 136.553L806.665 136.802L808.574 137.091L810.079 137.341L811.988 137.63L814.574 138.291L815.473 138.481L816.867 138.821L820.645 139.803L821.948 140.032L822.281 139.759L821.774 138.69L820.174 136.29L817.702 132.378L816.993 131.289L813.385 124.41L812.513 122.897L812.291 123.08ZM878.942 158.766L878.118 160.928L877.576 162.303L876.851 163.455L876.661 164.354L875.252 166.255L875.172 167.063L871.387 172.402L870.793 173.261L870.694 174.271L870.12 174.928L869.716 174.889L869.142 175.546L865.246 180.976L864.802 181.341L864.157 181.685L862.838 183.697L861.88 184.113L861.135 185.468L859.955 186.066L859.583 186.743L859.159 186.905L858.383 187.543L858.364 187.745L859.294 188.652L864.815 192.659L866.685 193.352L867.694 193.451L869.128 193.387L871.005 192.959L872.205 192.159L872.779 191.502L872.981 191.521L873.777 190.682L880.16 181.723L887.248 171.814L887.568 170.622L888.071 169.652L888.118 168.127L887.73 165.846L886.839 164.535L886.039 163.335L883.461 161.553L879.658 158.734L879.163 158.584L878.942 158.766Z" fill="#FEC526"/>
<path d="M759.961 118.159L755.47 124.448L753.336 127.502L753.095 127.886L753.752 128.46L754.429 128.832L755.158 129.719L755.32 130.143L756.473 130.868L758.283 132.166L759.083 133.366L760.327 134.202L761.479 134.926L762.553 136.459L763.44 135.73L767.225 130.391L770.416 125.912L770.547 125.619L769.414 124.692L766.361 122.558L765.561 121.358L762.032 118.871L760.515 117.703L759.961 118.159Z" fill="#FEC526"/>
<path d="M776.92 131.341L774.081 135.345L772.671 137.246L773.681 137.345L775.447 137.008L778.354 136.477L782.179 135.934L783.704 135.981L783.945 135.597L779.466 132.406L777.565 130.996L776.92 131.341Z" fill="#FEC526"/>
<path d="M793.693 107.902L785.548 119.237L782.709 123.241L782.649 123.847L786.178 126.334L789.798 128.931L790.475 129.304L790.729 129.838L790.891 130.262L794.42 132.749L795.105 132L797.592 128.471L805.032 118.087L806.33 116.277L806.279 115.762L803.134 113.517L801.942 113.196L797.847 110.246L794.136 107.538L793.693 107.902Z" fill="#FEC526"/>
<path d="M812.291 123.08L809.805 126.609L803.663 135.183L802.959 136.134L803.545 136.395L805.16 136.553L806.665 136.802L808.574 137.091L810.079 137.341L811.988 137.63L814.574 138.291L815.473 138.481L816.867 138.821L820.645 139.803L821.948 140.032L822.281 139.759L821.774 138.69L820.174 136.29L817.702 132.378L816.993 131.289L813.385 124.41L812.513 122.897L812.291 123.08Z" fill="#FEC526"/>
<path d="M803.378 94.3731L799.723 99.4188L799.24 100.187L799.989 100.872L805.125 104.638L805.803 105.01L806.044 104.626L805.414 102.729L804.709 98.4797L804.075 94.5433L803.821 94.0087L803.378 94.3731Z" fill="#FEC526"/>
<path d="M788.181 78.815L781.929 87.4806L781.315 88.5421L782.356 89.3577L786.361 92.1968L787.553 92.5174L791.648 95.4673L791.941 95.598L792.737 94.7584L799.12 85.7997L799.714 84.9402L799.642 84.6274L798.763 84.2354L798.157 84.1761L795.397 82.1725L794.498 81.9825L791.444 79.8483L790.252 79.5276L788.735 78.3595L788.181 78.815Z" fill="#FEC526"/>
<path d="M775.898 95.9641L769.757 104.539L766.102 109.584L765.599 110.555L769.219 113.152L770.261 113.968L770.241 114.17L771.172 115.077L775.651 118.268L776.075 118.106L779.155 113.717L785.649 104.668L786.726 103.04L785.886 102.244L781.407 99.0524L780.599 98.9733L776.979 96.3758L776.12 95.7819L775.898 95.9641Z" fill="#FEC526"/>
<path d="M757.399 84.9765L750.553 94.5015L749.123 96.6045L750.165 97.4202L752.268 98.8497L752.775 99.9189L753.836 100.533L755.262 101.59L756.011 102.275L756.446 103.031L758.074 104.108L758.64 104.571L759.436 103.732L766.524 93.8226L768.064 91.6285L768.124 91.0226L766.587 90.0564L765.727 89.4625L765.122 89.4032L762.25 87.4907L761.684 87.0274L761.078 86.9681L759.45 85.8911L757.731 84.7032L757.399 84.9765Z" fill="#FEC526"/>
<path d="M743.706 104.027L741.22 107.555L737.676 112.51L737.747 112.823L739.375 113.9L739.882 114.969L740.761 115.361L741.652 116.672L742.238 116.933L743.13 118.244L744.282 118.968L744.516 119.705L744.991 120.057L745.284 120.188L745.922 120.964L746.358 121.721L747.154 120.881L752.942 112.782L753.536 111.922L752.697 111.126L751.16 110.16L750.744 109.202L747.782 107.178L746.982 105.979L744.221 103.975L743.928 103.844L743.706 104.027Z" fill="#FEC526"/>
<path d="M714.29 72.2926L714.516 74.1499L714.873 75.7142L715.34 77.1873L715.879 78.9733L717.341 82.7868L718.446 85.0361L718.68 85.7727L719.044 86.2162L719.951 85.2854L721.955 82.525L722.014 81.919L720.739 80.3668L720.263 80.0144L720.192 79.7015L719.645 79.0363L719.079 78.573L718.643 77.8166L717.986 77.2425L717.55 76.4861L714.401 72.2015L714.29 72.2926Z" fill="#FEC526"/>
<path d="M727.915 89.328L724.019 94.7578L725.71 97.2684L727.057 99.1335L727.564 100.203L728.332 100.686L728.586 101.22L730.115 103.307L731.846 105.414L732.903 103.988L735.742 99.9841L737.282 97.7899L737.211 97.4771L736.169 96.6614L736.098 96.3485L735.167 95.4417L734.874 95.3111L734.328 94.6458L733.892 93.8895L732.446 93.0342L731.555 91.7235L730.969 91.4622L730.24 90.5752L729.987 90.0406L729.401 89.7793L728.561 88.9834L727.915 89.328Z" fill="#FEC526"/>
<path d="M738.195 74.9394L734.651 79.894L733.463 81.6129L733.534 81.9257L734.98 82.781L735.78 83.9808L736.932 84.7054L737.277 85.3509L737.439 85.7746L738.885 86.6299L739.431 87.2951L739.776 87.9406L740.746 88.4435L741.638 89.7542L742.497 90.3481L743.182 89.5996L748.377 82.3597L749.454 80.732L749.109 80.0865L748.23 79.6945L747.533 79.5243L746.199 78.578L745.3 78.388L743.379 77.1803L742.773 77.121L740.852 75.9133L740.246 75.854L738.527 74.6661L738.195 74.9394Z" fill="#FEC526"/>
<path d="M747.527 61.8855L743.742 67.2243L743.904 67.648L745.532 68.725L746.431 68.915L747.968 69.8812L748.958 70.182L750.586 71.259L751.485 71.449L752.819 72.3954L753.718 72.5854L754.78 73.1991L755.465 72.4505L760.307 65.686L760.236 65.3731L759.044 65.0525L757.579 64.3992L755.892 63.9281L754.608 63.4966L753.729 63.1046L752.426 62.8751L748.87 61.7111L747.971 61.5211L747.527 61.8855Z" fill="#FEC526"/>
<path d="M768.624 69.2532L764.486 75.0673L762.835 77.3525L763.584 78.0375L766.071 79.7085L766.97 79.8984L770.115 82.1436L770.923 82.2227L773.501 84.0045L774.91 82.1034L779.753 75.3389L780.478 74.1864L779.8 73.8142L779.194 73.7548L777.951 72.9194L777.345 72.86L776.01 71.9137L775.111 71.7237L773.464 70.8487L772.767 70.6784L771.614 69.9539L771.191 70.1163L769.289 68.7066L768.624 69.2532Z" fill="#FEC526"/>
<path d="M723.26 69.1947L723.24 69.3967L724.587 71.2618L726.044 73.0358L727.3 74.7901L728.337 73.5663L729.989 71.281L729.513 70.9286L727.533 70.3269L726.361 69.8043L724.876 69.353L723.593 68.9215L723.26 69.1947Z" fill="#FEC526"/>
<path d="M723.382 59.6229L724.059 59.9951L726.15 60.5057L728.716 61.3688L730.293 61.931L732.253 62.7347L732.95 62.9049L734.122 63.4275L735.203 63.8392L735.667 63.2729L738.023 60.0371L738.082 59.4312L736.153 59.3443L734.648 59.095L733.235 58.9565L731.71 58.9092L729.266 58.8738L727.207 59.0799L726.086 59.0721L723.916 59.3694L723.382 59.6229Z" fill="#FEC526"/>
<path d="M816.729 66.3175L815.794 68.5709L814.951 70.9353L814.029 74.1075L813.688 75.5015L813.288 77.5015L812.94 80.0163L812.75 80.9153L812.703 82.4399L812.517 85.3784L812.47 86.9031L812.573 87.9328L812.565 89.0535L812.609 90.6891L812.763 92.2335L813.112 94.9185L813.033 95.7264L813.714 98.1381L814.439 102.185L815.679 106.181L816.595 109.329L818.888 115.06L819.974 117.511L821.748 121.253L824.759 126.951L826.339 129.553L827.068 130.44L827.919 132.155L829.448 134.242L830.775 136.309L832.649 139.041L833.306 139.615L836.364 143.789L837.112 144.474L837.457 145.12L838.205 145.805L838.459 146.339L839.097 147.115L839.584 148.386L839.628 150.022L839.327 151.012L838.27 152.438L837.493 153.076L835.909 153.634L834.385 153.587L832.607 153.005L831.434 152.482L829.363 151.77L826.797 150.907L825.018 150.325L823.644 149.782L821.664 149.18L819.977 148.709L818.381 148.349L813.502 147.158L811.502 146.758L810.108 146.417L808.199 146.129L806.199 145.729L802.876 145.301L801.958 145.313L800.453 145.064L798.544 144.775L796.413 144.669L794.889 144.621L793.879 144.522L791.748 144.416L789.396 144.491L787.558 144.515L785.812 144.65L784.176 144.694L780.038 145.308L778.493 145.462L777.171 145.435L775.991 146.033L774.335 146.279L772.145 146.778L770.672 147.245L768.886 147.784L765.183 149.155L763.691 149.824L760.796 151.274L759.081 152.126L758.194 152.854L756.792 153.635L753.153 156.439L752.71 156.803L750.714 158.443L751.189 158.796L753.027 158.772L756.864 159.147L758.187 159.175L760.187 159.575L761.783 159.935L764.389 160.394L766.701 160.722L768.206 160.972L770.994 161.653L772.297 161.882L774.186 162.373L775.874 162.844L778.955 163.656L784.693 165.441L787.462 166.324L789.331 167.017L791.604 167.749L793.473 168.442L796.131 169.416L797.707 169.978L799.465 170.762L800.729 171.396L802.012 171.827L803.77 172.611L805.913 173.636L806.883 174.139L809.228 175.185L810.875 176.06L812.25 176.602L813.22 177.105L816.444 178.542L817.505 179.156L820.345 180.351L821.699 181.096L824.044 182.141L827.58 183.507L829.248 184.18L832.218 185.083L834.602 185.724L837.117 186.072L839.045 186.159L840.994 186.044L844.415 185.461L848.34 183.909L850.296 182.673L852.494 181.053L852.917 180.89L853.179 180.304L854.49 179.413L854.751 178.827L856.062 177.936L856.786 176.783L857.451 176.237L858.097 175.892L858.358 175.306L859.415 173.88L860.603 172.161L861.269 171.615L861.914 171.27L862.639 170.118L864.884 166.973L864.63 166.438L865.557 165.306L867.671 162.454L867.881 161.353L868.827 160.018L869.037 158.917L869.853 157.876L870.173 156.684L870.696 155.512L871.9 151.551L872.371 149.864L872.477 147.733L872.453 145.896L871.871 142.474L871.17 140.265L870.084 137.813L869.304 136.412L866.428 132.46L865.811 131.481L865.062 130.796L864.717 130.151L864.131 129.89L863.624 128.82L863.038 128.559L862.693 127.914L862.531 127.49L861.561 126.987L860.761 125.787L859.517 124.952L859.283 124.215L858.717 123.752L858.222 123.601L857.533 122.31L856.562 121.808L855.58 120.386L855.085 120.236L854.103 118.814L853.608 118.664L852.534 117.131L851.655 116.739L851.2 116.185L851.219 115.983L850.673 115.317L850.178 115.167L849.196 113.745L848.225 113.243L847.536 111.952L847.132 111.912L846.384 111.227L846.403 111.025L845.857 110.36L845.088 109.877L845.31 109.695L844.764 109.029L844.086 108.657L843.377 107.568L842.7 107.196L842.557 106.57L841.9 105.996L841.516 105.755L841.464 105.24L840.807 104.666L840.423 104.424L839.896 103.557L839.005 102.246L838.529 101.894L836.818 99.5851L836.292 98.7178L835.725 98.2546L833.305 94.857L830.247 90.6832L829.467 89.2814L828.829 88.5052L828.576 87.9706L828.101 87.6182L827.685 86.6599L826.865 85.662L826.013 83.9473L824.777 81.9911L821.422 75.6472L820.785 74.8711L819.426 72.0872L817.346 67.2956L817.204 66.6699L816.729 66.3175Z" fill="white"/>
<path d="M878.942 158.766L878.118 160.928L877.576 162.303L876.851 163.455L876.661 164.354L875.252 166.255L875.172 167.063L871.387 172.402L870.793 173.261L870.694 174.271L870.12 174.928L869.716 174.889L869.142 175.546L865.246 180.976L864.802 181.341L864.157 181.685L862.838 183.697L861.88 184.113L861.135 185.468L859.955 186.066L859.583 186.743L859.159 186.905L858.383 187.543L858.364 187.745L859.294 188.652L864.815 192.659L866.685 193.352L867.694 193.451L869.128 193.387L871.005 192.959L872.205 192.159L872.779 191.502L872.981 191.521L873.777 190.682L880.16 181.723L887.248 171.814L887.568 170.622L888.071 169.652L888.118 168.127L887.73 165.846L886.839 164.535L886.039 163.335L883.461 161.553L879.658 158.734L879.163 158.584L878.942 158.766Z" fill="white"/>
<path d="M139.096 146.169L140.713 148.54L142.104 151.276L142.781 153.368L143.145 154.657L143.7 157.027L143.925 158.787L144.163 163.543L144.004 165.267L143.968 166.713L143.861 168.925L143.616 169.483L143.79 169.692L143.561 172.183L143.193 174.081L142.947 175.701L142.457 177.878L142.072 179.968L141.459 182.424L140.9 184.304L140.445 186.098L139.605 188.919L138.837 190.974L138.399 192.576L137.77 194.161L137.106 196.129L136.093 198.741L135.446 200.517L134.817 202.101L134.224 203.303L133.333 205.636L132.128 208.23L131.394 209.902L129.473 213.976L128.88 215.178L128.059 216.745L126.994 218.869L125.911 221.184L125.004 222.647L124.515 223.761L123.154 225.954L122.996 226.616L121.321 229.071L120.919 230.29L118.912 233.197L118.772 233.667L119.225 233.998L120.932 234.349L122.447 234.681L123.771 234.996L129.413 236.675L130.998 237.304L131.381 237.339L132.478 238.02L133.697 238.422L134.41 239.067L135.455 239.26L137.544 240.708L138.31 240.779L141.67 243.117L142.941 244.007L143.723 244.949L144.088 246.238L143.947 247.771L143.545 248.99L142.986 249.808L141.33 251.008L139.065 251.476L136.381 252.292L129.671 254.863L125.819 256.827L123.902 257.713L120.328 259.799L118.394 260.877L117.661 261.486L115.936 262.39L113.861 263.938L111.403 265.451L109.433 266.912L107.916 267.642L107.794 267.921L106.329 269.139L102.284 272.148L98.8494 274.827L98.5179 275.279L98.3263 275.262L97.594 275.871L97.4541 276.341L96.9662 276.393L96.3385 276.914L96.1986 277.385L95.6062 277.523L95.0831 277.958L94.8385 278.515L93.9322 278.915L93.7923 279.385L92.5722 280.046L92.31 280.795L91.5953 281.212L91.4213 281.003L90.6184 282.378L89.8167 282.691L89.2584 283.509L89.2231 283.892L87.7937 284.727L87.6361 285.389L86.9214 285.806L86.7298 285.788L86.2067 286.223L85.9446 286.972L85.3168 287.494L85.1429 287.285L84.4799 288.19L84.0261 288.921L83.6429 288.886L83.0152 289.407L82.5438 290.33L81.3236 290.991L81.2883 291.374L80.7476 292.001L80.0505 292.226L79.4745 293.236L78.4636 293.723L77.7653 295.011L76.9636 295.324L76.5275 295.863L76.5099 296.055L75.7775 296.664L75.3767 296.82L74.8183 297.638L73.8943 298.229L73.4582 298.769L72.6389 299.273L72.0981 299.9L69.0994 302.039L66.5368 303.639L64.7065 304.63L62.0922 305.742L59.3909 306.749L55.2613 307.529L53.7108 307.579L51.2893 307.646L51.1153 307.437L50.2431 308.516L44.6946 316.314L44.0492 317.028L43.4392 317.358L42.7585 318.455L42.0262 319.064L41.6253 319.22L40.9623 320.125L37.6157 321.846L34.2702 322.504L32.3188 322.711L32.1449 322.502L31.9356 322.676L30.0372 322.308L28.435 321.87L27.216 321.468L25.8407 320.666L22.7597 318.45L20.6709 317.001L16.2322 313.791L15.0485 313.006L9.8787 309.342L8.78197 308.661L5.89262 306.463L5.24845 306.114L3.71679 304.91L3.29949 304.195L3.0209 304.073L2.51662 303.254L1.83837 302.225L0.778104 300.099L0.119873 296.753L0 294.906L0.316246 292.52L0.6313 291.197L1.10269 290.274L1.38247 289.333L2.3946 287.784L2.44751 287.209L6.00701 282.126L8.78125 278.227L9.11275 277.775L8.4345 276.746L8.1571 275.561L7.68809 274.359L6.92643 270.038L6.96408 267.529L7.05345 265.508L7.08991 264.063L7.49315 261.781L7.8082 260.457L8.15853 258.75L9.26002 255.18L9.76669 253.874L10.5355 251.82L11.1468 250.427L11.7404 249.225L12.1248 248.198L12.9277 246.823L13.2075 245.882L13.6789 244.96L14.0633 243.932L14.6393 242.922L14.6922 242.348L15.4775 241.164L15.8795 239.945L16.4379 239.127L16.7177 238.186L17.5029 237.003L17.5558 236.428L18.2541 235.139L18.4986 234.582L18.4293 234.286L19.4414 232.737L19.6506 232.563L19.4943 232.162L20.2795 230.978L20.4723 229.933L21.153 228.836L21.4328 227.896L22.2885 225.946L23.0926 223.508L23.4418 222.864L23.8438 221.645L24.2106 220.809L25.1722 217.709L25.941 215.654L26.3959 213.861L27.0601 211.893L27.5668 210.587L28.144 208.515L28.6342 206.337L29.0891 204.544L29.5088 203.133L29.8415 201.618L30.3141 199.632L30.6821 197.734L30.963 195.731L31.4003 194.129L31.6813 192.126L31.9094 190.697L32.2092 187.44L32.4373 186.012L32.509 184.183L32.4573 183.695L32.6665 183.521L32.5102 183.12L32.703 182.075L32.6184 179.845L32.5855 178.103L32.448 176.448L32.4315 175.577L32.1894 174.009L32.3998 172.772L33.0111 171.379L33.8657 170.492L35.4868 169.675L36.7586 169.502L38.1692 169.922L41.1632 172.033L42.1553 172.801L42.4339 172.923L42.9558 173.551L43.2861 174.161L43.8433 174.405L44.7485 175.068L45.288 175.504L45.6877 176.411L46.889 177.004L47.1323 177.51L47.7412 178.242L48.3854 178.591L48.7851 179.498L49.1506 179.724L50.2814 181.084L52.6818 184.397L53.8643 186.245L55.7944 189.418L56.5268 188.809L58.4111 186.18L58.7426 185.728L59.4397 185.502L61.1148 183.048L61.6379 182.613L62.248 182.283L63.3824 180.455L64.6202 179.602L65.7546 177.775L66.9924 176.922L67.6731 175.826L68.8063 175.06L69.3823 174.051L70.7247 173.111L71.3007 172.102L72.3117 171.615L72.9053 170.414L73.707 170.101L74.2477 169.474L74.3876 169.004L74.8931 168.761L75.6078 168.344L75.9746 167.508L76.6717 167.282L77.1948 166.847L77.23 166.464L77.9624 165.855L78.5725 165.525L78.7124 165.055L79.3225 164.724L79.8279 164.481L80.0901 163.732L81.3103 163.072L81.4501 162.601L82.5834 161.836L83.1241 161.21L83.8388 160.792L84.1879 160.148L84.7804 160.009L85.2165 159.47L85.4434 159.104L86.3673 158.513L87.5005 157.748L87.9367 157.208L90.1161 155.573L90.8308 155.156L91.3715 154.529L93.2371 153.155L94.248 152.669L95.2942 151.799L97.7698 150.094L100.228 148.581L102.267 147.417L103.296 146.738L107.148 144.774L109.675 143.558L114.085 141.838L116.368 141.178L118.947 140.45L121.595 140.017L123.529 140.002L124.992 139.847L127.396 139.971L129.295 140.339L130.148 140.514L131.559 140.934L132.394 141.301L133.961 142.121L135.319 143.116L135.876 143.36L136.851 144.32L137.599 144.582L138.469 145.628L138.713 146.133L139.096 146.169ZM134.798 157.174L134.449 157.818L133.976 159.803L133.172 162.241L132.648 163.739L131.897 165.602L131.739 166.264L131.25 167.378L130.866 168.406L131.405 168.842L134.486 171.058L135.061 171.11L135.133 169.281L135.361 167.853L135.484 166.512L135.521 165.066L135.541 162.749L135.334 160.798L135.335 159.735L135.041 157.679L134.798 157.174ZM122.735 148.624L120.975 148.849L119.494 149.195L118.1 149.647L116.41 150.167L112.802 151.574L110.676 152.635L109.979 152.86L109.56 153.208L110.448 154.063L113.076 155.947L113.651 156L115.115 154.782L115.447 154.33L115.743 154.261L116.371 153.739L116.807 153.199L117.522 152.782L118.062 152.155L118.777 151.738L122.822 148.729L122.735 148.624ZM125.722 157.111L125.53 157.094L123.769 158.381L122.096 159.773L120.439 160.973L121.605 161.95L123.781 163.502L124.113 163.05L124.672 161.169L125.161 160.055L125.581 158.644L125.983 157.425L125.722 157.111ZM132.786 180.08L127.704 176.52L127.303 176.676L126.291 178.226L126.115 179.079L125.208 180.541L124.928 181.482L123.916 183.031L123.741 183.884L122.851 185.155L122.676 186.009L122.1 187.018L122.813 187.664L129.254 192.218L129.55 192.148L129.847 191.016L130.459 189.623L130.896 188.021L131.298 186.802L131.665 185.966L131.875 184.73L132.959 181.351L133.134 180.498L132.786 180.08ZM120.358 171.303L115.641 167.97L114.004 166.854L113.708 166.923L112.905 168.298L111.772 169.064L111.091 170.16L110.481 170.491L110.081 170.647L109.278 172.022L108.65 172.544L108.04 172.874L107.568 173.797L106.331 174.649L105.772 175.468L106.486 176.113L113.379 180.998L114.928 182.011L115.538 181.68L115.905 180.845L116.063 180.183L116.952 178.912L117.128 178.059L118.262 176.231L118.315 175.656L119.449 173.828L119.502 173.253L120.619 171.617L120.358 171.303ZM106.659 161.637L101.489 157.973L99.118 159.59L97.3571 160.877L96.3461 161.364L95.8924 162.095L95.3869 162.338L93.4167 163.799L91.4289 165.452L92.7866 166.447L96.5987 169.116L98.6876 170.564L98.9838 170.495L99.7514 169.503L100.048 169.434L100.902 168.546L101.025 168.268L101.652 167.746L102.367 167.328L103.17 165.953L104.408 165.101L104.652 164.544L105.489 163.848L105.995 163.604L106.239 163.047L106.989 162.247L106.659 161.637ZM125.918 200.123L120.382 196.232L118.206 194.679L117.561 195.393L115.991 197.76L115.815 198.613L113.704 201.607L113.634 202.374L111.958 204.828L113.769 206.154L120.209 210.708L121.306 211.389L121.655 210.745L121.708 210.17L122.493 208.986L122.546 208.411L123.436 207.141L123.611 206.287L124.432 204.72L124.589 204.058L125.27 202.962L125.114 202.561L126.44 200.751L125.918 200.123ZM110.948 189.567L101.879 183.128L99.877 181.785L99.1094 182.777L97.7658 184.779L96.7548 185.265L96.1788 186.275L95.1843 187.633L94.539 188.346L93.8243 188.764L92.8121 190.313L92.376 190.852L93.1765 191.602L102.611 198.268L104.7 199.716L105.275 199.769L106.182 198.306L106.741 197.488L106.793 196.913L108.591 194.18L109.027 193.641L109.08 193.066L110.092 191.517L111.209 189.881L110.948 189.567ZM92.81 176.69L89.4504 174.352L84.7332 171.019L84.437 171.089L83.4248 172.638L82.4139 173.124L82.0471 173.96L80.8093 174.812L80.5648 175.37L79.327 176.222L78.6464 177.319L77.9493 177.544L77.6178 177.997L77.4955 178.275L76.7632 178.884L76.0485 179.302L76.849 180.052L84.5602 185.496L85.3783 186.054L86.1283 185.253L87.0358 183.791L87.9421 183.391L89.8441 180.571L90.9773 179.806L92.8617 177.178L92.984 176.899L92.81 176.69ZM116.96 218.718L108.709 212.838L107.7 212.262L106.932 213.254L104.262 217.066L103.965 218.198L101.191 222.097L101.068 222.376L101.869 223.126L110.398 229.128L111.216 229.687L111.513 229.617L111.879 228.781L111.932 228.207L113.817 225.578L113.992 224.725L115.998 221.818L116.296 220.686L117.395 219.241L116.96 218.718ZM100.632 207.167L92.4687 201.392L87.6645 197.955L86.7417 197.483L84.299 200.93L83.5314 201.922L83.3398 201.904L82.4852 202.792L79.484 207.056L79.6404 207.457L83.8181 210.354L92.4344 216.461L93.9837 217.473L94.7337 216.672L97.7348 212.408L97.8053 211.641L100.248 208.195L100.806 207.377L100.632 207.167ZM128.967 245.716L126.826 244.843L124.579 244.056L121.566 243.199L120.243 242.884L118.344 242.516L115.958 242.2L115.105 242.025L113.659 241.988L110.872 241.828L109.426 241.792L108.45 241.895L107.388 241.894L105.837 241.945L104.374 242.1L101.83 242.445L101.063 242.375L98.7805 243.034L94.9472 243.744L91.1656 244.942L88.1857 245.827L82.7654 248.033L80.4473 249.076L76.909 250.779L71.5228 253.665L69.0648 255.178L68.2279 255.874L66.6068 256.691L64.6367 258.152L62.6842 259.421L60.1039 261.213L59.5632 261.839L55.6228 264.761L54.9775 265.475L54.3674 265.805L53.722 266.519L53.2166 266.762L52.4842 267.371L51.2817 267.84L49.7312 267.891L48.7908 267.611L47.4331 266.616L46.8242 265.884L46.2858 264.385L46.3223 262.939L46.8642 261.25L47.3533 260.136L48.0174 258.168L48.8215 255.73L49.3635 254.041L49.8701 252.735L50.4297 250.854L50.867 249.252L51.1997 247.737L52.3024 243.104L52.6703 241.206L52.9854 239.882L53.2487 238.071L53.6167 236.172L54.0035 233.019L53.987 232.148L54.2151 230.72L54.4784 228.909L54.5678 226.888L54.6043 225.442L54.6925 224.484L54.7818 222.463L54.6972 220.233L54.6643 218.491L54.5268 216.836L54.4763 215.286L53.871 211.365L53.7158 209.902L53.7347 208.648L53.161 207.532L52.9189 205.964L52.4334 203.89L51.9821 202.496L51.4614 200.806L50.1413 197.303L49.4983 195.891L48.1078 193.155L47.2908 191.533L46.5949 190.697L45.8473 189.372L43.1684 185.937L41.2547 183.635L40.9232 184.088L40.9561 185.83L40.621 189.47L40.6022 190.725L40.2343 192.623L39.9016 194.138L39.4807 196.612L39.1821 198.806L38.954 200.234L38.3239 202.882L38.1135 204.118L37.6585 205.912L37.2212 207.514L36.4689 210.44L34.8078 215.891L33.9861 218.52L33.3395 220.297L32.6577 222.456L32.0112 224.232L31.1024 226.757L30.5782 228.255L29.8446 229.926L29.251 231.128L28.8489 232.347L28.1154 234.018L27.155 236.055L26.6836 236.978L25.7055 239.207L24.885 240.774L24.3783 242.08L23.907 243.002L22.5621 246.067L21.9861 247.077L20.8682 249.776L20.1699 251.064L19.1919 253.293L17.9164 256.653L17.2875 258.238L16.4481 261.059L15.8533 263.323L15.537 265.71L15.4653 267.539L15.5852 269.385L16.1564 272.626L17.6504 276.338L18.833 278.186L20.3811 280.261L20.5374 280.662L21.0946 280.906L21.9468 282.144L22.504 282.389L23.3562 283.627L24.4529 284.307L24.9749 284.935L25.3052 285.545L25.8623 285.79L27.22 286.784L28.8563 287.901L29.3782 288.529L29.7085 289.139L30.8053 289.819L33.7992 291.931L34.3047 291.687L35.3838 292.559L38.0992 294.548L39.1442 294.741L40.4149 295.631L41.4599 295.824L42.452 296.592L43.584 296.889L44.6984 297.378L48.46 298.497L50.0622 298.934L52.0829 299.024L53.825 298.991L57.0658 298.42L59.1571 297.743L61.4752 296.7L62.8 295.952L66.5311 293.204L67.455 292.613L68.1004 291.899L68.7105 291.569L68.955 291.012L69.9659 290.525L70.2104 289.968L70.8205 289.638L71.2214 289.481L71.6928 288.559L72.826 287.793L73.6112 286.61L74.3083 286.384L74.7444 285.844L74.8843 285.374L76.1045 284.714L76.5759 283.791L77.9183 282.852L78.0582 282.381L79.4006 281.442L79.5405 280.972L80.9876 279.946L81.3544 279.11L81.8775 278.675L82.0691 278.693L82.6968 278.171L82.8367 277.701L84.1791 276.761L84.6505 275.839L85.8707 275.178L85.906 274.795L86.5513 274.081L86.7429 274.099L87.3707 273.577L87.8244 272.846L87.9984 273.055L88.6261 272.533L88.9752 271.889L90.0038 271.211L90.353 270.567L90.9454 270.428L91.4862 269.801L91.713 269.436L92.2009 269.384L92.7416 268.758L92.9685 268.392L93.7878 267.888L95.0256 267.036L95.3571 266.583L97.5365 264.948L98.3559 264.444L98.792 263.904L102 261.591L105.94 258.668L107.265 257.921L107.997 257.312L108.503 257.069L108.834 256.616L109.741 256.216L110.682 255.434L112.303 254.617L114.151 253.434L120.148 250.218L120.88 249.609L123.512 248.305L128.043 246.307L128.636 246.169L128.967 245.716ZM79.5007 192.179L73.5128 187.957L70.6058 185.95L70.2402 185.723L69.6995 186.35L69.3503 186.994L68.5134 187.69L68.1125 187.846L67.4319 188.943L66.2105 190.666L65.0773 191.431L64.2921 192.615L63.6114 193.712L62.1644 194.738L62.8603 195.575L67.9431 199.135L72.2078 202.136L72.4864 202.258L73.3586 201.179L75.3652 198.272L76.4984 197.507L78.8365 194.147L79.9357 192.702L79.5007 192.179ZM102.293 233.213L97.4889 229.776L96.7577 229.322L96.1123 230.035L92.5705 234.927L92.2214 235.571L92.5869 235.798L94.3819 235.19L98.4069 234.498L102.136 233.875L102.641 233.631L102.293 233.213ZM89.4121 224.105L78.6199 216.445L74.8078 213.776L74.233 213.723L71.8949 217.082L69.4521 220.529L69.103 221.173L68.5975 221.416L68.1967 221.573L65.8585 224.932L66.5721 225.577L69.9316 227.916L81.5419 236.134L82.0297 236.082L84.141 233.088L84.4384 231.956L87.2127 228.057L89.76 224.523L89.4121 224.105ZM67.0966 208.332L63.2845 205.662L61.4742 204.336L61.386 205.294L61.7152 206.967L62.2347 209.72L62.7707 213.344L62.7342 214.79L63.0998 215.017L66.1009 210.752L67.4269 208.942L67.0966 208.332ZM75.1248 241.823L71.7652 239.485L63.6014 233.71L62.6963 233.047L62.4518 233.604L62.3107 235.137L62.0826 236.565L61.8193 238.376L61.5912 239.805L61.3279 241.616L60.7154 244.072L60.5403 244.925L60.2252 246.249L59.3153 249.836L59.1049 251.073L59.3658 251.387L60.3768 250.9L62.6432 249.37L66.339 247.005L67.3676 246.326L73.8693 242.867L75.2987 242.032L75.1248 241.823ZM41.6585 305.214L39.6037 304.445L38.2977 303.938L37.201 303.258L36.3476 303.083L34.5373 301.757L33.7709 301.686L28.6881 298.127L27.8699 297.568L26.9119 297.48L26.2854 296.939L26.3206 296.556L25.6941 296.015L20.5243 292.351L20.1764 291.933L19.846 291.323L17.9312 290.084L17.5315 289.177L16.2432 288.479L15.6696 287.363L15.0254 287.014L14.869 286.613L14.2601 285.881L14.0685 285.863L13.2139 286.751L9.4452 292.008L8.79865 293.784L8.71047 294.742L8.77863 296.101L9.19473 297.878L9.95996 299.011L10.5865 299.552L10.5689 299.744L11.3694 300.494L19.8987 306.496L29.3332 313.161L30.4652 313.459L31.388 313.93L32.8338 313.966L34.9944 313.586L36.2322 312.733L37.3654 311.968L39.0405 309.514L41.6925 305.893L41.8324 305.423L41.6585 305.214Z" fill="#FEC526"/>
<path d="M75.1248 241.823L71.7652 239.485L63.6014 233.71L62.6963 233.047L62.4518 233.604L62.3107 235.137L62.0826 236.565L61.8193 238.376L61.5912 239.805L61.3279 241.616L60.7154 244.072L60.5403 244.925L60.2252 246.249L59.3153 249.836L59.1049 251.073L59.3658 251.387L60.3768 250.9L62.6432 249.37L66.339 247.005L67.3676 246.326L73.8693 242.867L75.2987 242.032L75.1248 241.823Z" fill="#FEC526"/>
<path d="M102.293 233.213L97.4889 229.776L96.7577 229.322L96.1123 230.035L92.5705 234.927L92.2214 235.571L92.5869 235.798L94.3819 235.19L98.4069 234.498L102.136 233.875L102.641 233.631L102.293 233.213Z" fill="#FEC526"/>
<path d="M67.0966 208.332L63.2845 205.662L61.4742 204.336L61.386 205.294L61.7152 206.967L62.2347 209.72L62.7707 213.344L62.7342 214.79L63.0998 215.017L66.1009 210.752L67.4269 208.942L67.0966 208.332Z" fill="#FEC526"/>
<path d="M100.632 207.167L92.4687 201.392L87.6645 197.955L86.7417 197.483L84.299 200.93L83.5314 201.922L83.3398 201.904L82.4852 202.792L79.484 207.056L79.6404 207.457L83.8181 210.354L92.4344 216.461L93.9837 217.473L94.7337 216.672L97.7348 212.408L97.8053 211.641L100.248 208.195L100.806 207.377L100.632 207.167Z" fill="#FEC526"/>
<path d="M116.96 218.718L108.709 212.838L107.7 212.262L106.932 213.254L104.262 217.066L103.965 218.198L101.191 222.097L101.068 222.376L101.869 223.126L110.398 229.128L111.216 229.687L111.513 229.617L111.879 228.781L111.932 228.207L113.817 225.578L113.992 224.725L115.998 221.818L116.296 220.686L117.395 219.241L116.96 218.718Z" fill="#FEC526"/>
<path d="M125.918 200.123L120.382 196.232L118.206 194.679L117.561 195.393L115.991 197.76L115.815 198.613L113.704 201.607L113.634 202.374L111.958 204.828L113.769 206.154L120.209 210.708L121.306 211.389L121.655 210.745L121.708 210.17L122.493 208.986L122.546 208.411L123.436 207.141L123.611 206.287L124.432 204.72L124.589 204.058L125.27 202.962L125.114 202.561L126.44 200.751L125.918 200.123Z" fill="#FEC526"/>
<path d="M110.948 189.567L101.879 183.128L99.877 181.785L99.1094 182.777L97.7658 184.779L96.7548 185.265L96.1788 186.275L95.1843 187.633L94.539 188.346L93.8243 188.764L92.8121 190.313L92.376 190.852L93.1765 191.602L102.611 198.268L104.7 199.716L105.275 199.769L106.182 198.306L106.741 197.488L106.793 196.913L108.591 194.18L109.027 193.641L109.08 193.066L110.092 191.517L111.209 189.881L110.948 189.567Z" fill="#FEC526"/>
<path d="M92.81 176.69L89.4504 174.352L84.7332 171.019L84.437 171.089L83.4248 172.638L82.4139 173.124L82.0471 173.96L80.8093 174.812L80.5648 175.37L79.327 176.222L78.6464 177.319L77.9493 177.544L77.6178 177.997L77.4955 178.275L76.7632 178.884L76.0485 179.302L76.849 180.052L84.5602 185.496L85.3783 186.054L86.1283 185.253L87.0358 183.791L87.9421 183.391L89.8441 180.571L90.9773 179.806L92.8617 177.178L92.984 176.899L92.81 176.69Z" fill="#FEC526"/>
<path d="M79.5007 192.179L73.5128 187.957L70.6058 185.95L70.2402 185.723L69.6995 186.35L69.3503 186.994L68.5134 187.69L68.1125 187.846L67.4319 188.943L66.2105 190.666L65.0773 191.431L64.2921 192.615L63.6114 193.712L62.1644 194.738L62.8603 195.575L67.9431 199.135L72.2078 202.136L72.4864 202.258L73.3586 201.179L75.3652 198.272L76.4984 197.507L78.8365 194.147L79.9357 192.702L79.5007 192.179Z" fill="#FEC526"/>
<path d="M106.659 161.637L101.489 157.973L99.118 159.59L97.3571 160.877L96.3461 161.364L95.8924 162.095L95.3869 162.338L93.4167 163.799L91.4289 165.452L92.7866 166.447L96.5987 169.116L98.6876 170.564L98.9838 170.495L99.7514 169.503L100.048 169.434L100.902 168.546L101.025 168.268L101.652 167.746L102.367 167.328L103.17 165.953L104.408 165.101L104.652 164.544L105.489 163.848L105.995 163.604L106.239 163.047L106.989 162.247L106.659 161.637Z" fill="#FEC526"/>
<path d="M120.358 171.303L115.641 167.97L114.004 166.854L113.708 166.923L112.905 168.298L111.772 169.064L111.091 170.16L110.481 170.491L110.081 170.647L109.278 172.022L108.65 172.544L108.04 172.874L107.568 173.797L106.331 174.649L105.772 175.468L106.486 176.113L113.379 180.998L114.928 182.011L115.538 181.68L115.905 180.845L116.063 180.183L116.952 178.912L117.128 178.059L118.262 176.231L118.315 175.656L119.449 173.828L119.502 173.253L120.619 171.617L120.358 171.303Z" fill="#FEC526"/>
<path d="M132.786 180.08L127.704 176.52L127.303 176.676L126.291 178.226L126.115 179.079L125.208 180.541L124.928 181.482L123.916 183.031L123.741 183.884L122.851 185.155L122.676 186.009L122.1 187.018L122.813 187.664L129.254 192.218L129.55 192.148L129.847 191.016L130.459 189.623L130.896 188.021L131.298 186.802L131.665 185.966L131.875 184.73L132.959 181.351L133.134 180.498L132.786 180.08Z" fill="#FEC526"/>
<path d="M134.798 157.174L134.449 157.818L133.976 159.803L133.172 162.241L132.648 163.739L131.897 165.602L131.739 166.264L131.25 167.378L130.866 168.406L131.405 168.842L134.486 171.058L135.061 171.11L135.133 169.281L135.361 167.853L135.484 166.512L135.521 165.066L135.541 162.749L135.334 160.798L135.335 159.735L135.041 157.679L134.798 157.174Z" fill="#FEC526"/>
<path d="M125.722 157.111L125.53 157.094L123.769 158.381L122.096 159.773L120.439 160.973L121.605 161.95L123.781 163.502L124.113 163.05L124.672 161.169L125.161 160.055L125.581 158.644L125.983 157.425L125.722 157.111Z" fill="#FEC526"/>
<path d="M122.735 148.624L120.975 148.849L119.494 149.195L118.1 149.647L116.41 150.167L112.802 151.574L110.676 152.635L109.979 152.86L109.56 153.208L110.448 154.063L113.076 155.947L113.651 156L115.115 154.782L115.447 154.33L115.743 154.261L116.371 153.739L116.807 153.199L117.522 152.782L118.062 152.155L118.777 151.738L122.822 148.729L122.735 148.624Z" fill="#FEC526"/>
<path d="M89.4121 224.105L78.6199 216.445L74.8078 213.776L74.233 213.723L71.8949 217.082L69.4521 220.529L69.103 221.173L68.5975 221.416L68.1967 221.573L65.8585 224.932L66.5721 225.577L69.9316 227.916L81.5419 236.134L82.0297 236.082L84.141 233.088L84.4384 231.956L87.2127 228.057L89.76 224.523L89.4121 224.105Z" fill="#FEC526"/>
<path d="M128.967 245.716L126.826 244.843L124.579 244.056L121.566 243.199L120.243 242.884L118.344 242.516L115.958 242.2L115.105 242.025L113.659 241.988L110.872 241.828L109.426 241.792L108.45 241.895L107.388 241.894L105.837 241.945L104.374 242.1L101.83 242.445L101.063 242.375L98.7805 243.034L94.9472 243.744L91.1656 244.942L88.1857 245.827L82.7654 248.033L80.4473 249.076L76.909 250.779L71.5228 253.665L69.0648 255.178L68.2279 255.874L66.6068 256.691L64.6367 258.152L62.6842 259.421L60.1039 261.213L59.5632 261.839L55.6228 264.761L54.9775 265.475L54.3674 265.805L53.722 266.519L53.2166 266.762L52.4842 267.371L51.2817 267.84L49.7312 267.891L48.7908 267.611L47.4331 266.616L46.8242 265.884L46.2858 264.385L46.3223 262.939L46.8642 261.25L47.3533 260.136L48.0174 258.168L48.8215 255.73L49.3635 254.041L49.8701 252.735L50.4297 250.854L50.867 249.252L51.1997 247.737L52.3024 243.104L52.6703 241.206L52.9854 239.882L53.2487 238.071L53.6167 236.172L54.0035 233.019L53.987 232.148L54.2151 230.72L54.4784 228.909L54.5678 226.888L54.6043 225.442L54.6925 224.484L54.7818 222.463L54.6972 220.233L54.6643 218.491L54.5268 216.836L54.4763 215.286L53.871 211.365L53.7158 209.902L53.7347 208.648L53.161 207.532L52.9189 205.964L52.4334 203.89L51.9821 202.496L51.4614 200.806L50.1413 197.303L49.4983 195.891L48.1078 193.155L47.2908 191.533L46.5949 190.697L45.8473 189.372L43.1684 185.937L41.2547 183.635L40.9232 184.088L40.9561 185.83L40.621 189.47L40.6022 190.725L40.2343 192.623L39.9016 194.138L39.4807 196.612L39.1821 198.806L38.954 200.234L38.3239 202.882L38.1135 204.118L37.6585 205.912L37.2212 207.514L36.4689 210.44L34.8078 215.891L33.9861 218.52L33.3395 220.297L32.6577 222.456L32.0112 224.232L31.1024 226.757L30.5782 228.255L29.8446 229.926L29.251 231.128L28.8489 232.347L28.1154 234.018L27.155 236.055L26.6836 236.978L25.7055 239.207L24.885 240.774L24.3783 242.08L23.907 243.002L22.5621 246.067L21.9861 247.077L20.8682 249.776L20.1699 251.064L19.1919 253.293L17.9164 256.653L17.2875 258.238L16.4481 261.059L15.8533 263.323L15.537 265.71L15.4653 267.539L15.5852 269.385L16.1564 272.626L17.6504 276.338L18.833 278.186L20.3811 280.261L20.5374 280.662L21.0946 280.906L21.9468 282.144L22.504 282.389L23.3562 283.627L24.4529 284.307L24.9749 284.935L25.3052 285.545L25.8623 285.79L27.22 286.784L28.8563 287.901L29.3782 288.529L29.7085 289.139L30.8053 289.819L33.7992 291.931L34.3047 291.687L35.3838 292.559L38.0992 294.548L39.1442 294.741L40.4149 295.631L41.4599 295.824L42.452 296.592L43.584 296.889L44.6984 297.378L48.46 298.497L50.0622 298.934L52.0829 299.024L53.825 298.991L57.0658 298.42L59.1571 297.743L61.4752 296.7L62.8 295.952L66.5311 293.204L67.455 292.613L68.1004 291.899L68.7105 291.569L68.955 291.012L69.9659 290.525L70.2104 289.968L70.8205 289.638L71.2214 289.481L71.6928 288.559L72.826 287.793L73.6112 286.61L74.3083 286.384L74.7444 285.844L74.8843 285.374L76.1045 284.714L76.5759 283.791L77.9183 282.852L78.0582 282.381L79.4006 281.442L79.5405 280.972L80.9876 279.946L81.3544 279.11L81.8775 278.675L82.0691 278.693L82.6968 278.171L82.8367 277.701L84.1791 276.761L84.6505 275.839L85.8707 275.178L85.906 274.795L86.5513 274.081L86.7429 274.099L87.3707 273.577L87.8244 272.846L87.9984 273.055L88.6261 272.533L88.9752 271.889L90.0038 271.211L90.353 270.567L90.9454 270.428L91.4862 269.801L91.713 269.436L92.2009 269.384L92.7416 268.758L92.9685 268.392L93.7878 267.888L95.0256 267.036L95.3571 266.583L97.5365 264.948L98.3559 264.444L98.792 263.904L102 261.591L105.94 258.668L107.265 257.921L107.997 257.312L108.503 257.069L108.834 256.616L109.741 256.216L110.682 255.434L112.303 254.617L114.151 253.434L120.148 250.218L120.88 249.609L123.512 248.305L128.043 246.307L128.636 246.169L128.967 245.716Z" fill="white"/>
<path d="M41.6585 305.214L39.6037 304.445L38.2977 303.938L37.201 303.258L36.3476 303.083L34.5373 301.757L33.7709 301.686L28.6881 298.127L27.8699 297.568L26.9119 297.48L26.2854 296.939L26.3206 296.556L25.6941 296.015L20.5243 292.351L20.1764 291.933L19.846 291.323L17.9312 290.084L17.5315 289.177L16.2432 288.479L15.6696 287.363L15.0254 287.014L14.869 286.613L14.2601 285.881L14.0685 285.863L13.2139 286.751L9.4452 292.008L8.79865 293.784L8.71047 294.742L8.77863 296.101L9.19473 297.878L9.95996 299.011L10.5865 299.552L10.5689 299.744L11.3694 300.494L19.8987 306.496L29.3332 313.161L30.4652 313.459L31.388 313.93L32.8338 313.966L34.9944 313.586L36.2322 312.733L37.3654 311.968L39.0405 309.514L41.6925 305.893L41.8324 305.423L41.6585 305.214Z" fill="white"/>
</svg>
